<svg width="96" height="96" viewBox="0 0 96 96" fill="none" xmlns="http://www.w3.org/2000/svg">
<path d="M36.6158 83.4901L28.3639 75.316C26.9582 73.9235 28.3025 71.074 30.2295 70.6245C38.1309 68.7814 42.5225 60.5052 46.5656 55.2102L46.5924 55.1751C51.6104 48.6031 52.0482 48.0298 64.5471 45.5774C71.0071 44.3099 74.4164 40.9781 76.047 37.9084C76.8719 36.3555 79.3847 35.5276 80.624 36.775L87.7072 43.9039C88.1651 44.3647 88.3785 45.0227 88.2266 45.6542C86.0555 54.6767 77.05 58.1329 72.6691 58.7341C66.7406 59.6577 61.9805 61.2595 55.7204 71.7481C49.8517 81.5811 41.805 84 37.8668 84.0295C37.3943 84.0331 36.9515 83.8226 36.6158 83.4901Z" fill="#D2492A"/>
<path fill-rule="evenodd" clip-rule="evenodd" d="M46.5924 55.1751L46.5656 55.2102C45.8425 56.1572 45.1082 57.1995 44.3448 58.2834C40.8394 63.2598 36.7177 69.111 30.2295 70.6245C28.3026 71.074 26.9582 73.9235 28.3639 75.316L36.6158 83.4901L35.2083 84.911L26.9564 76.7369C25.4486 75.2433 25.6281 73.1927 26.2067 71.8333C26.7898 70.4635 28.0388 69.0818 29.7752 68.6768C33.1411 67.8916 35.8733 65.7132 38.3392 62.8948C39.5675 61.491 40.6962 59.9678 41.7896 58.4329C42.0884 58.0134 42.3877 57.5885 42.6865 57.1644C43.459 56.0678 44.228 54.9761 44.976 53.9965C44.976 53.9965 44.976 53.9964 44.976 53.9964L45.0028 53.9614L45.0028 53.9613C45.0624 53.8832 45.1216 53.8058 45.1802 53.7289C47.5265 50.6548 49.1276 48.5571 51.7966 47.0812C54.4276 45.6263 58.0085 44.8222 64.162 43.6149C70.038 42.462 72.9362 39.5015 74.2808 36.9702C74.9974 35.621 76.335 34.7269 77.6469 34.364C78.9511 34.0032 80.7384 34.0525 82.0428 35.3653L89.126 42.4943C90.0239 43.398 90.501 44.7509 90.1711 46.1221L88.2266 45.6542C88.3786 45.0227 88.1651 44.3648 87.7073 43.904L80.6241 36.775C79.3847 35.5276 76.8719 36.3555 76.047 37.9084C74.4165 40.9781 71.0071 44.31 64.5471 45.5774C52.0482 48.0298 51.6105 48.6031 46.5924 55.1751ZM72.9598 60.7129C70.1031 61.1588 67.7812 61.7344 65.4361 63.3133C63.058 64.9143 60.4856 67.6665 57.4378 72.7732C51.2049 83.2163 42.507 85.9949 37.8818 86.0295C36.7929 86.0376 35.858 85.5545 35.2083 84.911L36.6158 83.4901C36.9515 83.8226 37.3943 84.0331 37.8668 84.0295C41.805 84.0001 49.8517 81.5811 55.7204 71.7482C61.9805 61.2595 66.7407 59.6577 72.6691 58.7341C77.05 58.1329 86.0555 54.6767 88.2266 45.6542L90.1711 46.1221C88.9414 51.2325 85.7719 54.7368 82.3934 57.0112C79.0516 59.261 75.4191 60.3723 72.9598 60.7129Z" fill="#9B0D0D"/>
<path d="M64.5471 45.5774C71.0071 44.3099 74.4164 40.9781 76.047 37.9084C76.8719 36.3555 79.3847 35.5276 80.624 36.775L82.3049 38.4667C82.6772 38.8414 82.8938 39.3501 82.8591 39.8771C82.232 49.3989 70.8544 54.5198 65.75 55.2102C60.5 55.9203 53.625 52.5001 46.5656 63.7501C41.5027 71.8184 34.9671 75.7139 31.4822 76.9951C30.8218 77.2379 30.0979 77.0336 29.598 76.5384L28.3639 75.316C26.9582 73.9235 28.3025 71.074 30.2295 70.6245C38.1309 68.7814 42.5225 60.5052 46.5656 55.2102L46.5924 55.1751C51.6104 48.6031 52.0482 48.0298 64.5471 45.5774Z" fill="#B0351A"/>
<path d="M76.8706 51.6579C76.3886 52.0219 75.7533 51.9932 75.4517 51.5937C75.1501 51.1943 75.2964 50.5754 75.7784 50.2114C76.2605 49.8474 76.8958 49.8761 77.1974 50.2756C77.499 50.675 77.3527 51.2939 76.8706 51.6579Z" fill="#A42F15"/>
<path d="M76.349 48.3096C75.867 48.6736 75.2317 48.6449 74.9301 48.2454C74.6285 47.846 74.7748 47.2271 75.2568 46.8631C75.7389 46.4991 76.3742 46.5278 76.6758 46.9273C76.9774 47.3267 76.8311 47.9456 76.349 48.3096Z" fill="#A42F15"/>
<path d="M72.9773 52.8553C72.4953 53.2193 71.86 53.1906 71.5584 52.7912C71.2568 52.3918 71.4031 51.7729 71.8851 51.4089C72.3672 51.0449 73.0025 51.0736 73.3041 51.473C73.6057 51.8724 73.4594 52.4913 72.9773 52.8553Z" fill="#A42F15"/>
<path d="M75.8288 55.1211C75.3468 55.4851 74.7115 55.4564 74.4099 55.057C74.1083 54.6576 74.2546 54.0387 74.7366 53.6747C75.2187 53.3107 75.854 53.3394 76.1556 53.7388C76.4572 54.1383 76.3109 54.7571 75.8288 55.1211Z" fill="#A42F15"/>
<path d="M80.2248 49.1475C79.5486 49.6581 78.6575 49.6178 78.2344 49.0575C77.8113 48.4972 78.0165 47.629 78.6928 47.1184C79.369 46.6078 80.2601 46.6481 80.6832 47.2084C81.1063 47.7687 80.9011 48.6369 80.2248 49.1475Z" fill="#A42F15"/>
<path d="M80.1183 53.3451C79.4421 53.8557 78.5509 53.8154 78.1278 53.2551C77.7048 52.6948 77.91 51.8267 78.5862 51.3161C79.2624 50.8055 80.1536 50.8458 80.5766 51.4061C80.9997 51.9664 80.7945 52.8345 80.1183 53.3451Z" fill="#A42F15"/>
<path d="M84.4476 49.2411C83.7713 49.7517 82.8802 49.7114 82.4571 49.1511C82.034 48.5908 82.2393 47.7227 82.9155 47.2121C83.5917 46.7015 84.4829 46.7418 84.9059 47.3021C85.329 47.8624 85.1238 48.7305 84.4476 49.2411Z" fill="#A42F15"/>
<path d="M82.5302 45.8612C82.1655 46.1366 81.6848 46.1149 81.4566 45.8127C81.2283 45.5104 81.339 45.0422 81.7038 44.7667C82.0686 44.4913 82.5493 44.513 82.7775 44.8153C83.0057 45.1175 82.895 45.5858 82.5302 45.8612Z" fill="#A42F15"/>
<path d="M82.3507 43.4223C81.9859 43.6977 81.5052 43.676 81.277 43.3737C81.0488 43.0715 81.1595 42.6032 81.5242 42.3278C81.889 42.0524 82.3697 42.0741 82.5979 42.3763C82.8261 42.6786 82.7154 43.1468 82.3507 43.4223Z" fill="#A42F15"/>
<path d="M79.7861 45.497C79.4214 45.7725 78.9407 45.7507 78.7125 45.4485C78.4843 45.1463 78.595 44.678 78.9597 44.4026C79.3245 44.1271 79.8052 44.1489 80.0334 44.4511C80.2616 44.7533 80.1509 45.2216 79.7861 45.497Z" fill="#A42F15"/>
<path d="M77.4157 42.9679C77.051 43.2433 76.5703 43.2216 76.3421 42.9194C76.1138 42.6171 76.2245 42.1488 76.5893 41.8734C76.9541 41.598 77.4348 41.6197 77.663 41.922C77.8912 42.2242 77.7805 42.6925 77.4157 42.9679Z" fill="#A42F15"/>
<path d="M71.2983 56.2804C70.9335 56.5558 70.4528 56.5341 70.2246 56.2319C69.9964 55.9296 70.1071 55.4613 70.4719 55.1859C70.8366 54.9105 71.3173 54.9322 71.5455 55.2345C71.7737 55.5367 71.663 56.005 71.2983 56.2804Z" fill="#A42F15"/>
<path d="M73.1435 47.6049C72.7787 47.8803 72.298 47.8586 72.0698 47.5563C71.8416 47.2541 71.9523 46.7858 72.3171 46.5104C72.6818 46.235 73.1625 46.2567 73.3907 46.5589C73.619 46.8612 73.5083 47.3294 73.1435 47.6049Z" fill="#A42F15"/>
<path fill-rule="evenodd" clip-rule="evenodd" d="M50.3563 53.0304C51.1116 52.2244 52.3773 52.1833 53.1832 52.9387L60.3308 59.637C61.1367 60.3923 61.1778 61.658 60.4225 62.4639C59.6672 63.2699 58.4015 63.311 57.5955 62.5557L50.448 55.8573C49.642 55.102 49.601 53.8363 50.3563 53.0304Z" fill="#E05739"/>
<path fill-rule="evenodd" clip-rule="evenodd" d="M31.3826 72.4181C32.1471 71.6209 33.4132 71.5942 34.2104 72.3587L40.6799 78.5618C41.4772 79.3262 41.5038 80.5923 40.7394 81.3896C39.9749 82.1869 38.7088 82.2135 37.9115 81.449L31.4421 75.2459C30.6448 74.4815 30.6182 73.2154 31.3826 72.4181Z" fill="#E05739"/>
<path fill-rule="evenodd" clip-rule="evenodd" d="M84.5431 44.1244C85.0286 44.3877 85.2087 44.9947 84.9455 45.4802C81.808 51.2657 77.6316 54.1657 72.0023 55.4226C70.4978 55.7585 69.2172 55.9958 68.066 56.2091C64.989 56.7794 62.8369 57.1782 59.8075 58.83C57.8831 59.8793 56.5078 61.6429 54.9725 64.0402C54.6103 64.6058 54.2396 65.2062 53.8518 65.8344C52.6256 67.8201 51.228 70.0837 49.3851 72.4042C45.5559 77.2254 41.2847 79.1478 38.2454 80.21C37.724 80.3922 37.1537 80.1172 36.9715 79.5959C36.7893 79.0745 37.0642 78.5041 37.5856 78.3219C40.4251 77.3296 44.3105 75.5777 47.8189 71.1603C49.581 68.9416 50.8922 66.8187 52.1076 64.8508C52.5073 64.2036 52.8967 63.5732 53.2883 62.9617C54.8426 60.5345 56.4469 58.3844 58.85 57.0741C62.1783 55.2593 64.7132 54.7902 67.9092 54.1987C69.0268 53.9919 70.2251 53.7701 71.5665 53.4706C76.6404 52.3377 80.33 49.7958 83.1873 44.5267C83.4506 44.0412 84.0576 43.8611 84.5431 44.1244Z" fill="#FD9E75"/>
<path fill-rule="evenodd" clip-rule="evenodd" d="M80.4144 40.4996C80.8854 40.788 81.0333 41.4037 80.7449 41.8746C77.4792 47.2066 73.5471 49.9369 67.8975 51.106C66.446 51.4064 65.1982 51.6097 64.0789 51.792C60.8875 52.3118 58.7401 52.6616 55.889 54.6081C53.5681 56.1928 52.053 57.9126 50.5224 60.0142C49.9825 60.7553 49.425 61.5685 48.8231 62.4465C47.7514 64.0098 46.5388 65.7786 45.0339 67.7125C41.1306 72.7285 37.2457 74.915 33.7982 75.3527C33.2503 75.4222 32.7498 75.0345 32.6802 74.4866C32.6107 73.9387 32.9984 73.4382 33.5463 73.3686C36.3142 73.0172 39.7666 71.2247 43.4555 66.4842C44.9389 64.578 46.0647 62.9334 47.1037 61.4156C47.7161 60.5211 48.2983 59.6706 48.9057 58.8367C50.5141 56.6284 52.1854 54.7151 54.7613 52.9564C58.007 50.7404 60.6811 50.3072 64.0202 49.7663C65.0949 49.5922 66.2385 49.407 67.4922 49.1475C72.582 48.0943 76.0521 45.7075 79.0394 40.8301C79.3278 40.3591 79.9434 40.2111 80.4144 40.4996Z" fill="#FD9E75"/>
<path d="M11.262 51.5894L5.79453 41.3416C4.86312 39.5959 6.98959 37.271 8.96329 37.411C17.0565 37.9854 23.6979 31.3769 29.1252 27.5133L29.1612 27.4877C35.8974 22.6923 36.4851 22.2739 49.1504 23.6251C55.6964 24.3234 59.9381 22.148 62.4031 19.6973C63.6501 18.4576 66.2953 18.4093 67.1107 19.9672L71.7705 28.8711C72.0717 29.4467 72.0812 30.1383 71.7494 30.6967C67.0088 38.6745 57.3841 39.3148 53.0213 38.5944C47.0846 37.7247 42.0637 37.8481 32.9835 46.0181C24.4708 53.6774 16.0687 53.6102 12.2977 52.4744C11.8453 52.3382 11.4844 52.0062 11.262 51.5894Z" fill="#D4482A"/>
<path fill-rule="evenodd" clip-rule="evenodd" d="M29.1612 27.4877L29.1252 27.5133C28.1545 28.2043 27.145 28.9831 26.0953 29.7929C21.2758 33.511 15.609 37.8827 8.96329 37.411C6.98959 37.271 4.86312 39.5959 5.79453 41.3416L11.262 51.5894L9.49746 52.5308L4.02997 42.2831C3.03094 40.4106 3.80842 38.5046 4.76298 37.377C5.72484 36.2407 7.32638 35.2898 9.10488 35.4161C12.5525 35.6608 15.8065 34.3871 18.9952 32.4234C20.5835 31.4453 22.1119 30.3237 23.6101 29.1805C24.0196 28.8681 24.4311 28.5507 24.8419 28.2337C25.9039 27.4144 26.9612 26.5988 27.9653 25.884C27.9653 25.884 27.9653 25.884 27.9653 25.884L28.0013 25.8584L28.0013 25.8583C28.0813 25.8014 28.1607 25.7448 28.2395 25.6887C31.3895 23.4454 33.539 21.9146 36.525 21.2934C39.4684 20.681 43.1271 20.9712 49.3625 21.6364C55.3167 22.2716 58.9604 20.2999 60.993 18.279C62.0764 17.2019 63.6185 16.7431 64.979 16.7841C66.3316 16.8248 68.0245 17.4002 68.8826 19.0399L73.5425 27.9438C74.1332 29.0724 74.1892 30.5059 73.4687 31.7184L71.7494 30.6967C72.0812 30.1383 72.0717 29.4467 71.7705 28.8711L67.1107 19.9672C66.2953 18.4093 63.6501 18.4576 62.4031 19.6973C59.9381 22.148 55.6964 24.3234 49.1504 23.6251C36.4851 22.274 35.8974 22.6923 29.1612 27.4877ZM52.7141 40.5708C49.8533 40.1525 47.465 40.0161 44.758 40.8314C42.0129 41.6581 38.7421 43.5272 34.3212 47.5049C25.2803 55.6395 16.1498 55.7233 11.7209 54.3895C10.6783 54.0754 9.92792 53.3376 9.49746 52.5308L11.262 51.5894C11.4844 52.0062 11.8453 52.3382 12.2977 52.4744C16.0687 53.6102 24.4708 53.6774 32.9835 46.0181C42.0637 37.8481 47.0846 37.7247 53.0213 38.5944C57.3841 39.3148 67.0088 38.6745 71.7494 30.6967L73.4687 31.7184C70.7837 36.2371 66.72 38.6481 62.8204 39.8225C58.9629 40.9841 55.1642 40.9722 52.7141 40.5708Z" fill="#891616"/>
<path d="M59.7696 33.6365C59.1649 33.8965 58.5001 33.7012 58.2846 33.2002C58.0691 32.6992 58.3846 32.0823 58.9892 31.8222C59.5939 31.5621 60.2587 31.7574 60.4742 32.2584C60.6897 32.7594 60.3743 33.3764 59.7696 33.6365Z" fill="#AD2F13"/>
<path d="M60.0867 29.9574C59.482 30.2175 58.8172 30.0222 58.6017 29.5212C58.3862 29.0202 58.7016 28.4032 59.3063 28.1432C59.911 27.8831 60.5758 28.0784 60.7913 28.5794C61.0068 29.0804 60.6913 29.6974 60.0867 29.9574Z" fill="#AD2F13"/>
<path d="M55.3386 33.8929C54.7339 34.153 54.069 33.9577 53.8536 33.4567C53.6381 32.9557 53.9535 32.3387 54.5582 32.0786C55.1628 31.8185 55.8277 32.0138 56.0432 32.5148C56.2587 33.0158 55.9432 33.6328 55.3386 33.8929Z" fill="#AD2F13"/>
<path d="M57.7681 37.031C57.1634 37.291 56.4986 37.0957 56.2831 36.5947C56.0676 36.0937 56.383 35.4768 56.9877 35.2167C57.5923 34.9566 58.2572 35.1519 58.4727 35.6529C58.6882 36.1539 58.3727 36.7709 57.7681 37.031Z" fill="#AD2F13"/>
<path d="M63.971 31.8504C63.1228 32.2153 62.1901 31.9413 61.8878 31.2385C61.5856 30.5358 62.0281 29.6703 62.8763 29.3055C63.7245 28.9406 64.6571 29.2146 64.9594 29.9174C65.2617 30.6201 64.8191 31.4856 63.971 31.8504Z" fill="#AD2F13"/>
<path d="M62.7685 36.265C61.9203 36.6298 60.9877 36.3558 60.6854 35.6531C60.3831 34.9503 60.8256 34.0848 61.6738 33.72C62.522 33.3551 63.4546 33.6291 63.7569 34.3319C64.0592 35.0347 63.6167 35.9001 62.7685 36.265Z" fill="#AD2F13"/>
<path d="M68.4154 33.0456C67.5672 33.4105 66.6346 33.1365 66.3323 32.4337C66.03 31.7309 66.4726 30.8655 67.3207 30.5006C68.1689 30.1358 69.1016 30.4098 69.4038 31.1126C69.7061 31.8153 69.2636 32.6808 68.4154 33.0456Z" fill="#AD2F13"/>
<path d="M67.2638 28.971C66.8063 29.1678 66.3032 29.02 66.1401 28.6409C65.9771 28.2618 66.2158 27.795 66.6733 27.5982C67.1308 27.4014 67.6339 27.5492 67.7969 27.9283C67.96 28.3074 67.7213 28.7742 67.2638 28.971Z" fill="#AD2F13"/>
<path d="M67.7068 26.3433C67.2493 26.5401 66.7462 26.3923 66.5832 26.0132C66.4201 25.6342 66.6588 25.1673 67.1164 24.9705C67.5739 24.7737 68.0769 24.9215 68.24 25.3006C68.4031 25.6797 68.1644 26.1465 67.7068 26.3433Z" fill="#AD2F13"/>
<path d="M64.4543 27.8732C63.9968 28.07 63.4937 27.9223 63.3306 27.5432C63.1676 27.1641 63.4063 26.6973 63.8638 26.5005C64.3213 26.3037 64.8244 26.4514 64.9874 26.8305C65.1505 27.2096 64.9118 27.6765 64.4543 27.8732Z" fill="#AD2F13"/>
<path d="M62.6022 24.5814C62.1446 24.7782 61.6416 24.6304 61.4785 24.2513C61.3155 23.8723 61.5542 23.4054 62.0117 23.2086C62.4692 23.0118 62.9723 23.1596 63.1353 23.5387C63.2984 23.9178 63.0597 24.3846 62.6022 24.5814Z" fill="#AD2F13"/>
<path d="M52.6725 37.0819C52.215 37.2787 51.7119 37.1309 51.5489 36.7518C51.3858 36.3727 51.6245 35.9059 52.0821 35.7091C52.5396 35.5123 53.0426 35.6601 53.2057 36.0392C53.3688 36.4183 53.1301 36.8851 52.6725 37.0819Z" fill="#AD2F13"/>
<path d="M56.8773 28.3797C56.4198 28.5764 55.9167 28.4287 55.7537 28.0496C55.5906 27.6705 55.8293 27.2037 56.2868 27.0069C56.7443 26.8101 57.2474 26.9579 57.4105 27.3369C57.5735 27.716 57.3348 28.1829 56.8773 28.3797Z" fill="#AD2F13"/>
<path fill-rule="evenodd" clip-rule="evenodd" d="M33.8373 25.4359C34.7917 24.8799 36.0162 25.203 36.5721 26.1574L42.2285 35.8684C42.7844 36.8228 42.4614 38.0472 41.5069 38.6032C40.5525 39.1591 39.328 38.8361 38.7721 37.8816L33.1157 28.1707C32.5598 27.2162 32.8828 25.9918 33.8373 25.4359Z" fill="#EB5E3F"/>
<path fill-rule="evenodd" clip-rule="evenodd" d="M8.45842 38.602C9.43148 38.0793 10.644 38.4443 11.1668 39.4174L16.0746 48.5536C16.5973 49.5267 16.2322 50.7392 15.2592 51.262C14.2861 51.7847 13.0735 51.4196 12.5508 50.4465L7.643 41.3103C7.12028 40.3372 7.48536 39.1247 8.45842 38.602Z" fill="#EB5E3F"/>
<path fill-rule="evenodd" clip-rule="evenodd" d="M68.6826 28.1466C69.0686 28.5416 69.0613 29.1747 68.6663 29.5607C63.9591 34.1605 59.1121 35.6967 53.3628 35.2337C51.8263 35.11 50.5328 34.9583 49.37 34.8219C46.2619 34.4572 44.088 34.2022 40.7057 34.8849C38.5572 35.3186 36.7221 36.597 34.5469 38.4335C34.0338 38.8667 33.5022 39.3307 32.946 39.8162C31.1878 41.3509 29.1836 43.1003 26.7372 44.7725C21.6542 48.2467 17.0057 48.8209 13.7882 48.9374C13.2363 48.9573 12.7726 48.5261 12.7527 47.9742C12.7327 47.4223 13.1639 46.9586 13.7158 46.9387C16.7218 46.8299 20.9514 46.3045 25.6086 43.1213C27.9477 41.5225 29.8277 39.8819 31.5704 38.3611C32.1436 37.861 32.7018 37.3738 33.2567 36.9053C35.4589 35.046 37.627 33.466 40.31 32.9245C44.026 32.1744 46.5863 32.4754 49.8143 32.8549C50.9431 32.9876 52.1534 33.1299 53.5234 33.2402C58.7055 33.6575 62.9815 32.3195 67.2684 28.1303C67.6634 27.7443 68.2966 27.7516 68.6826 28.1466Z" fill="#E7B469"/>
<path fill-rule="evenodd" clip-rule="evenodd" d="M65.8096 23.4635C66.1743 23.8783 66.1337 24.5101 65.7189 24.8748C61.0233 29.0035 56.4599 30.4497 50.7172 29.8969C49.2417 29.7549 47.9896 29.5803 46.8664 29.4237C43.664 28.9771 41.5091 28.6766 38.2101 29.6936C35.5245 30.5215 33.5689 31.7168 31.4855 33.2721C30.7507 33.8206 29.9778 34.4327 29.1433 35.0936C27.6575 36.2703 25.9763 37.6017 23.967 39.0045C18.7556 42.6428 14.3981 43.5835 10.9752 42.9827C10.4313 42.8873 10.0677 42.3689 10.1632 41.8249C10.2586 41.281 10.777 40.9174 11.321 41.0128C14.0691 41.4952 17.897 40.8031 22.8221 37.3646C24.8026 35.9819 26.3642 34.7435 27.8054 33.6006C28.6548 32.927 29.4623 32.2866 30.2891 31.6694C32.4783 30.0351 34.6403 28.7012 37.6209 27.7824C41.3765 26.6246 44.0592 27.0011 47.409 27.4712C48.4872 27.6225 49.6344 27.7835 50.9089 27.9061C56.0825 28.4041 60.103 27.1495 64.3983 23.3728C64.8131 23.0082 65.4449 23.0488 65.8096 23.4635Z" fill="#E7B469"/>
<path d="M20.0829 73.1734L13.1876 63.8265C12.013 62.2342 13.78 59.6256 15.7531 59.4781C23.8441 58.8732 29.4573 51.3717 34.2673 46.7621L34.2992 46.7316C40.2691 41.0104 40.7899 40.5113 53.5173 40.0121C60.0954 39.7542 63.977 36.9869 66.0607 34.2047C67.1147 32.7973 69.725 32.3661 70.7576 33.7894L76.659 41.9237C77.0405 42.4495 77.1501 43.1325 76.9027 43.7331C73.3687 52.3138 63.9384 54.3426 59.5173 54.2622C53.5173 54.2622 48.5673 55.1122 40.7673 64.5122C33.4549 73.3246 25.1317 74.4761 21.2359 73.899C20.7685 73.8297 20.3634 73.5536 20.0829 73.1734Z" fill="#E85434"/>
<path fill-rule="evenodd" clip-rule="evenodd" d="M34.2992 46.7316L34.2673 46.7621C33.4071 47.5865 32.5211 48.5035 31.5999 49.4569C27.3703 53.8343 22.397 58.9814 15.7532 59.4781C13.78 59.6256 12.013 62.2342 13.1876 63.8265L20.0829 73.1734L18.4735 74.3607L11.5782 65.0138C10.3183 63.3059 10.8113 61.3074 11.5923 60.0532C12.3792 58.7895 13.826 57.6165 15.6041 57.4836C19.0507 57.226 22.0857 55.4941 24.9561 53.0889C26.3858 51.8908 27.7355 50.5595 29.0522 49.2112C29.412 48.8428 29.7732 48.469 30.1337 48.0959C31.0657 47.1313 31.9936 46.171 32.8835 45.3182C32.8835 45.3182 32.8835 45.3182 32.8835 45.3182L32.9154 45.2876L32.9154 45.2876C32.9863 45.2196 33.0567 45.1522 33.1265 45.0852C35.918 42.409 37.8229 40.5828 40.6873 39.5352C43.5109 38.5027 47.1729 38.2594 53.4389 38.0137C59.4223 37.779 62.7417 35.3 64.4599 33.0058C65.3757 31.783 66.835 31.1055 68.1871 30.9488C69.5313 30.7931 71.2897 31.1169 72.3765 32.6149L78.2779 40.7493C79.0259 41.7804 79.2891 43.1906 78.752 44.4947L76.9027 43.7331C77.1501 43.1324 77.0405 42.4495 76.659 41.9237L70.7576 33.7894C69.7251 32.3661 67.1148 32.7973 66.0607 34.2047C63.977 36.9869 60.0954 39.7542 53.5173 40.0121C40.7899 40.5112 40.2691 41.0104 34.2992 46.7316ZM59.4999 56.2622C56.6086 56.2631 54.2258 56.4743 51.6656 57.6734C49.0694 58.8894 46.104 61.2128 42.3064 65.7894C34.5402 75.1486 25.5183 76.5551 20.9429 75.8774C19.8658 75.7178 19.0163 75.0966 18.4735 74.3607L20.0829 73.1734C20.3634 73.5536 20.7686 73.8297 21.236 73.899C25.1318 74.4761 33.4549 73.3246 40.7673 64.5122C48.5673 55.1122 53.5173 54.2622 59.5173 54.2622C63.9385 54.3426 73.3687 52.3138 76.9027 43.7331L78.752 44.4947C76.7504 49.3549 73.0792 52.3296 69.3909 54.0568C65.7426 55.7653 61.9823 56.3043 59.4999 56.2622Z" fill="#9B0D0D"/>
<path d="M65.4266 48.2727C64.859 48.5771 64.1945 48.4426 63.9423 47.9723C63.6901 47.502 63.9458 46.874 64.5134 46.5697C65.081 46.2653 65.7456 46.3999 65.9977 46.8701C66.2499 47.3404 65.9942 47.9684 65.4266 48.2727Z" fill="#C8391A"/>
<path d="M65.4266 44.6598C64.859 44.9642 64.1945 44.8296 63.9423 44.3593C63.6901 43.8891 63.9458 43.2611 64.5134 42.9567C65.081 42.6524 65.7456 42.7869 65.9977 43.2572C66.2499 43.7275 65.9942 44.3555 65.4266 44.6598Z" fill="#C8391A"/>
<path d="M61.1286 48.8951C60.561 49.1994 59.8965 49.0649 59.6443 48.5946C59.3921 48.1244 59.6478 47.4964 60.2154 47.192C60.783 46.8877 61.4475 47.0222 61.6997 47.4925C61.9519 47.9628 61.6962 48.5907 61.1286 48.8951Z" fill="#C8391A"/>
<path d="M63.7607 51.75C63.1931 52.0544 62.5285 51.9199 62.2764 51.4496C62.0242 50.9793 62.2799 50.3513 62.8475 50.047C63.4151 49.7426 64.0796 49.8772 64.3318 50.3474C64.584 50.8177 64.3283 51.4457 63.7607 51.75Z" fill="#C8391A"/>
<path d="M69.3722 46.1786C68.576 46.6055 67.6438 46.4168 67.29 45.7571C66.9363 45.0974 67.295 44.2165 68.0912 43.7896C68.8873 43.3627 69.8195 43.5514 70.1733 44.2111C70.527 44.8708 70.1683 45.7517 69.3722 46.1786Z" fill="#C8391A"/>
<path d="M68.571 50.5833C67.7748 51.0103 66.8426 50.8216 66.4888 50.1619C66.1351 49.5022 66.4938 48.6213 67.2899 48.1944C68.0861 47.7674 69.0183 47.9561 69.3721 48.6158C69.7258 49.2755 69.3671 50.1564 68.571 50.5833Z" fill="#C8391A"/>
<path d="M73.8053 46.9704C73.0091 47.3973 72.0769 47.2086 71.7231 46.5489C71.3694 45.8892 71.7281 45.0084 72.5243 44.5814C73.3204 44.1545 74.2526 44.3432 74.6064 45.0029C74.9601 45.6626 74.6014 46.5435 73.8053 46.9704Z" fill="#C8391A"/>
<path d="M72.3401 43.0948C71.9107 43.3251 71.4078 43.2233 71.217 42.8675C71.0262 42.5116 71.2197 42.0365 71.6491 41.8062C72.0786 41.5759 72.5814 41.6777 72.7722 42.0335C72.9631 42.3894 72.7696 42.8645 72.3401 43.0948Z" fill="#C8391A"/>
<path d="M72.5512 40.496C72.1218 40.7263 71.6189 40.6245 71.4281 40.2687C71.2373 39.9128 71.4308 39.4377 71.8603 39.2074C72.2897 38.9771 72.7926 39.0789 72.9834 39.4347C73.1742 39.7906 72.9807 40.2657 72.5512 40.496Z" fill="#C8391A"/>
<path d="M69.5091 42.2608C69.0797 42.4911 68.5768 42.3893 68.386 42.0335C68.1952 41.6776 68.3887 41.2025 68.8181 40.9722C69.2476 40.7419 69.7504 40.8437 69.9413 41.1995C70.1321 41.5554 69.9386 42.0305 69.5091 42.2608Z" fill="#C8391A"/>
<path d="M67.427 39.2075C66.9976 39.4378 66.4947 39.336 66.3039 38.9802C66.1131 38.6243 66.3066 38.1492 66.7361 37.9189C67.1655 37.6886 67.6684 37.7904 67.8592 38.1462C68.05 38.5021 67.8565 38.9772 67.427 39.2075Z" fill="#C8391A"/>
<path d="M58.7976 52.2279C58.3682 52.4582 57.8653 52.3564 57.6745 52.0005C57.4837 51.6447 57.6772 51.1695 58.1067 50.9392C58.5361 50.709 59.039 50.8107 59.2298 51.1666C59.4206 51.5224 59.2271 51.9976 58.7976 52.2279Z" fill="#C8391A"/>
<path d="M62.1654 43.3913C61.7359 43.6216 61.2331 43.5198 61.0423 43.164C60.8515 42.8081 61.0449 42.333 61.4744 42.1027C61.9039 41.8724 62.4067 41.9742 62.5975 42.33C62.7883 42.6859 62.5948 43.161 62.1654 43.3913Z" fill="#C8391A"/>
<path fill-rule="evenodd" clip-rule="evenodd" d="M38.6828 44.183C39.5624 43.515 40.8171 43.6865 41.4851 44.5662L47.9678 53.1028C48.6358 53.9825 48.4642 55.2372 47.5845 55.9052C46.7049 56.5732 45.4502 56.4016 44.7822 55.522L38.2995 46.9853C37.6315 46.1057 37.8031 44.851 38.6828 44.183Z" fill="#FF876D"/>
<path fill-rule="evenodd" clip-rule="evenodd" d="M15.9265 61.1798C16.8035 60.5083 18.0588 60.6749 18.7303 61.5519L24.6505 69.2841C25.322 70.1611 25.1554 71.4164 24.2783 72.0879C23.4013 72.7594 22.146 72.5928 21.4745 71.7158L15.5543 63.9836C14.8828 63.1066 15.0494 61.8512 15.9265 61.1798Z" fill="#FF876D"/>
<path fill-rule="evenodd" clip-rule="evenodd" d="M73.4987 41.6544C73.9378 41.9893 74.0224 42.6168 73.6875 43.056C69.6969 48.2896 65.1238 50.5121 59.3681 50.8875C57.8299 50.9878 56.528 51.0252 55.3577 51.0588C52.2296 51.1486 50.0418 51.2114 46.7941 52.3772C44.7312 53.1177 43.1008 54.6486 41.2148 56.781C40.7699 57.2841 40.3112 57.8203 39.8312 58.3812C38.3141 60.1546 36.5846 62.1761 34.4065 64.1852C29.8808 68.3595 25.3646 69.6016 22.198 70.1832C21.6548 70.283 21.1336 69.9235 21.0338 69.3803C20.934 68.8371 21.2935 68.3159 21.8367 68.2161C24.7951 67.6727 28.9039 66.5398 33.0505 62.715C35.1331 60.7941 36.7554 58.8982 38.2593 57.1409C38.7538 56.563 39.2356 56 39.7167 55.456C41.6261 53.2971 43.5423 51.4196 46.1184 50.4948C49.6864 49.214 52.2633 49.1406 55.5123 49.0482C56.6483 49.0159 57.8665 48.9812 59.238 48.8917C64.4259 48.5534 68.4627 46.6097 72.0971 41.8433C72.432 41.4041 73.0595 41.3196 73.4987 41.6544Z" fill="#FAF1D1"/>
<path fill-rule="evenodd" clip-rule="evenodd" d="M69.9771 37.4373C70.3981 37.7948 70.4495 38.4259 70.092 38.8469C66.0445 43.6126 61.7389 45.7051 55.9768 45.9906C54.4962 46.064 53.2321 46.0727 52.098 46.0805C48.8647 46.1029 46.689 46.118 43.5723 47.6025C41.0351 48.8109 39.2733 50.2771 37.4374 52.1179C36.7899 52.7672 36.1139 53.4848 35.384 54.2597C34.0845 55.6394 32.614 57.2005 30.8293 58.8797C26.2004 63.2351 22.0252 64.7975 18.5515 64.6992C17.9994 64.6836 17.5645 64.2234 17.5801 63.6714C17.5958 63.1193 18.056 62.6844 18.608 62.7C21.397 62.7789 25.0842 61.5392 29.4588 57.4231C31.2179 55.7679 32.5836 54.3162 33.8438 52.9764C34.5866 52.1868 35.2927 51.4361 36.0213 50.7056C37.9505 48.7713 39.8964 47.138 42.7123 45.7968C46.2604 44.1068 48.9692 44.0905 52.3518 44.07C53.4405 44.0634 54.599 44.0564 55.8778 43.993C61.069 43.7358 64.8651 41.9116 68.5676 37.5522C68.9251 37.1312 69.5562 37.0798 69.9771 37.4373Z" fill="#FAF1D1"/>
</svg>
