<svg width="62" height="91" viewBox="0 0 62 91" fill="none" xmlns="http://www.w3.org/2000/svg">
<path d="M28 13C18.6203 13.5072 12 12.8588 12 14L13.5 28C6.71541 27.0295 0 21.0529 0 14C0 6.26801 6.26801 0 14 0C20.8293 0 26.7651 6.53052 28 13Z" fill="#FFD84D"/>
<path fill-rule="evenodd" clip-rule="evenodd" d="M26 13C26.6551 12.9577 27.3111 13.0372 28 13C26.7651 6.53052 20.8293 0 14 0C6.26801 0 0 6.26801 0 14C0 21.0529 6.71541 27.0295 13.5 28V26C7.5 25.5 2 19.946 2 14C2 7.37258 7.37258 2 14 2C19.7626 2 24.8418 7.58313 26 13Z" fill="#EEC42E"/>
<path fill-rule="evenodd" clip-rule="evenodd" d="M19.5 13C14.7384 13.531 12.5 13.2306 12.5 14L13 20C10.6696 19.1763 8 16.6124 8 14C8 10.6863 10.6863 8 14 8C16.6117 8 18.6757 10.6707 19.5 13Z" fill="#FFECA9"/>
<path fill-rule="evenodd" clip-rule="evenodd" d="M5.20006 6.40006C5.53143 5.95823 6.15823 5.86869 6.60006 6.20006L10.6001 9.20006C11.0419 9.53143 11.1314 10.1582 10.8001 10.6001C10.4687 11.0419 9.84189 11.1314 9.40006 10.8001L5.40006 7.80006C4.95823 7.46869 4.86869 6.84189 5.20006 6.40006Z" fill="#FFECA9"/>
<path fill-rule="evenodd" clip-rule="evenodd" d="M9.96501 14.2371C10.1103 14.77 9.79619 15.3197 9.26337 15.465L3.76337 16.965C3.23054 17.1103 2.6808 16.7962 2.53549 16.2634C2.39017 15.7305 2.70431 15.1808 3.23713 15.0355L8.73713 13.5355C9.26996 13.3902 9.8197 13.7043 9.96501 14.2371Z" fill="#FFECA9"/>
<path fill-rule="evenodd" clip-rule="evenodd" d="M15.0996 2.50504C15.6491 2.55999 16.0501 3.05003 15.9951 3.59958L15.4951 8.59958C15.4402 9.14912 14.9501 9.55007 14.4006 9.49511C13.851 9.44016 13.4501 8.95012 13.505 8.40057L14.005 3.40057C14.06 2.85103 14.55 2.45008 15.0996 2.50504Z" fill="#FFECA9"/>
<path fill-rule="evenodd" clip-rule="evenodd" d="M9.70711 19.2929C10.0976 19.6834 10.0976 20.3166 9.70711 20.7071L7.70711 22.7071C7.31658 23.0976 6.68342 23.0976 6.29289 22.7071C5.90237 22.3166 5.90237 21.6834 6.29289 21.2929L8.29289 19.2929C8.68342 18.9024 9.31658 18.9024 9.70711 19.2929Z" fill="#FFECA9"/>
<path fill-rule="evenodd" clip-rule="evenodd" d="M22.2071 6.29289C22.5976 6.68342 22.5976 7.31658 22.2071 7.70711L20.7071 9.20711C20.3166 9.59763 19.6834 9.59763 19.2929 9.20711C18.9024 8.81658 18.9024 8.18342 19.2929 7.79289L20.7929 6.29289C21.1834 5.90237 21.8166 5.90237 22.2071 6.29289Z" fill="#FFECA9"/>
<path d="M12 13H60L54.6113 77.6644C54.3212 81.1462 54.1761 82.8871 53.0279 83.9435C51.8797 85 50.1328 85 46.6389 85H25.3611C21.8672 85 20.1203 85 18.9721 83.9435C17.8239 82.8871 17.6788 81.1462 17.3887 77.6644L12 13Z" fill="#E3DFE3"/>
<path opacity="0.5" d="M18 13H28L34 85H24L18 13Z" fill="white"/>
<g opacity="0.06">
<path d="M60 13H52L46 85H46.6389C50.1328 85 51.8797 85 53.0279 83.9435C54.1761 82.8871 54.3212 81.1462 54.6113 77.6644L60 13Z" fill="black" style="mix-blend-mode:soft-light"/>
</g>
<path fill-rule="evenodd" clip-rule="evenodd" d="M60 13H12L12.1667 15H59.8333L60 13Z" fill="black" fill-opacity="0.06"/>
</svg>
