<svg width="60" height="74" viewBox="0 0 60 74" fill="none" xmlns="http://www.w3.org/2000/svg">
<path d="M6 13.9177H54L48.7204 66.7137C48.378 70.1375 48.2068 71.8493 47.0641 72.8835C45.9213 73.9177 44.2009 73.9177 40.7601 73.9177H19.2399C15.7991 73.9177 14.0787 73.9177 12.9359 72.8835C11.7932 71.8493 11.622 70.1375 11.2796 66.7138L6 13.9177Z" fill="#E3DFE3"/>
<path opacity="0.5" d="M12 13.9177H22L28 73.9177H18L12 13.9177Z" fill="white"/>
<g opacity="0.06">
<path d="M54 13.9177H46L40 73.9177H40.7601C44.2009 73.9177 45.9213 73.9177 47.0641 72.8835C48.2068 71.8493 48.378 70.1375 48.7204 66.7138L54 13.9177Z" fill="black" style="mix-blend-mode:soft-light"/>
</g>
<g opacity="0.06">
<path fill-rule="evenodd" clip-rule="evenodd" d="M54 13.9177H6L6.2 15.9177H53.8L54 13.9177Z" fill="black" style="mix-blend-mode:soft-light"/>
</g>
<path fill-rule="evenodd" clip-rule="evenodd" d="M10 53.9177L10.4 57.9177H49.6L50 53.9177H10Z" fill="#D27F55" fill-opacity="0.3"/>
<path fill-rule="evenodd" clip-rule="evenodd" d="M50.587 19.9177C52.649 19.9177 53.68 19.9177 54.2754 20.5746C54.8707 21.2314 54.7697 22.2574 54.5677 24.3095L51.8118 52.3095C51.6431 54.0241 51.5587 54.8814 50.9871 55.3996C50.4154 55.9177 49.554 55.9177 47.8311 55.9177H12.169C10.4461 55.9177 9.58461 55.9177 9.01297 55.3996C8.44132 54.8814 8.35694 54.0241 8.18818 52.3095L5.43228 24.3095C5.2303 22.2574 5.12931 21.2314 5.72467 20.5746C6.32003 19.9177 7.35103 19.9177 9.41304 19.9177H50.587Z" fill="#E59A61"/>
<g opacity="0.4">
<path fill-rule="evenodd" clip-rule="evenodd" d="M18.6 19.9177L22.2 55.9177H12.2L8.60001 19.9177H18.6Z" fill="white" style="mix-blend-mode:soft-light"/>
</g>
<path style="mix-blend-mode:soft-light" fill-rule="evenodd" clip-rule="evenodd" d="M47.8 55.9177H47.8311C49.554 55.9177 50.4154 55.9177 50.987 55.3996C51.5587 54.8814 51.6431 54.0241 51.8118 52.3095L54.5677 24.3095V24.3095C54.7697 22.2574 54.8707 21.2314 54.2753 20.5746C53.764 20.0104 52.9312 19.9308 51.3998 19.9196L47.8 55.9177Z" fill="black" fill-opacity="0.4"/>
<path fill-rule="evenodd" clip-rule="evenodd" d="M13 29.9177C13 29.3654 13.4477 28.9177 14 28.9177C14.5523 28.9177 15 29.3654 15 29.9177V45.9177C15 46.47 14.5523 46.9177 14 46.9177C13.4477 46.9177 13 46.47 13 45.9177V29.9177ZM17 29.9177C17 29.3654 17.4477 28.9177 18 28.9177C18.5523 28.9177 19 29.3654 19 29.9177V45.9177C19 46.47 18.5523 46.9177 18 46.9177C17.4477 46.9177 17 46.47 17 45.9177V29.9177ZM22 28.9177C21.4477 28.9177 21 29.3654 21 29.9177V45.9177C21 46.47 21.4477 46.9177 22 46.9177C22.5523 46.9177 23 46.47 23 45.9177V29.9177C23 29.3654 22.5523 28.9177 22 28.9177ZM25 29.9177C25 29.3654 25.4477 28.9177 26 28.9177C26.5523 28.9177 27 29.3654 27 29.9177V45.9177C27 46.47 26.5523 46.9177 26 46.9177C25.4477 46.9177 25 46.47 25 45.9177V29.9177ZM30 28.9177C29.4477 28.9177 29 29.3654 29 29.9177V45.9177C29 46.47 29.4477 46.9177 30 46.9177C30.5523 46.9177 31 46.47 31 45.9177V29.9177C31 29.3654 30.5523 28.9177 30 28.9177ZM33 29.9177C33 29.3654 33.4477 28.9177 34 28.9177C34.5523 28.9177 35 29.3654 35 29.9177V45.9177C35 46.47 34.5523 46.9177 34 46.9177C33.4477 46.9177 33 46.47 33 45.9177V29.9177ZM38 28.9177C37.4477 28.9177 37 29.3654 37 29.9177V45.9177C37 46.47 37.4477 46.9177 38 46.9177C38.5523 46.9177 39 46.47 39 45.9177V29.9177C39 29.3654 38.5523 28.9177 38 28.9177ZM41 29.9177C41 29.3654 41.4477 28.9177 42 28.9177C42.5523 28.9177 43 29.3654 43 29.9177V45.9177C43 46.47 42.5523 46.9177 42 46.9177C41.4477 46.9177 41 46.47 41 45.9177V29.9177ZM46 28.9177C45.4477 28.9177 45 29.3654 45 29.9177V45.9177C45 46.47 45.4477 46.9177 46 46.9177C46.5523 46.9177 47 46.47 47 45.9177V29.9177C47 29.3654 46.5523 28.9177 46 28.9177Z" fill="#AB604B" style="mix-blend-mode:darken"/>
<path d="M8.17661 5.47018C9.05663 2.8301 9.49665 1.51006 10.5442 0.755031C11.5917 0 12.9832 0 15.7661 0H44.2339C47.0168 0 48.4083 0 49.4558 0.755031C50.5034 1.51006 50.9434 2.8301 51.8234 5.47018L54 12H6L8.17661 5.47018Z" fill="#F2EDF2"/>
<path opacity="0.5" d="M16 0H26L22 12H12L16 0Z" fill="white"/>
<g opacity="0.06">
<path d="M46 12H54L51.8234 5.47018C50.9434 2.8301 50.5034 1.51006 49.4558 0.755032C48.4083 0 47.0168 0 44.2339 0H42L46 12Z" fill="black" style="mix-blend-mode:soft-light"/>
</g>
<rect y="12" width="60" height="8" rx="2" fill="#F2EDF2"/>
<path opacity="0.5" d="M8 12H18V20H8V12Z" fill="white"/>
<g opacity="0.06">
<path d="M52 12H56C57.8856 12 58.8284 12 59.4142 12.5858C60 13.1716 60 14.1144 60 16C60 17.8856 60 18.8284 59.4142 19.4142C58.8284 20 57.8856 20 56 20H52V12Z" fill="black" style="mix-blend-mode:soft-light"/>
</g>
</svg>
