<svg width="60" height="91" viewBox="0 0 60 91" fill="none" xmlns="http://www.w3.org/2000/svg">
<path d="M6 13.9176H54L48.6113 78.582C48.3212 82.0638 48.1761 83.8047 47.0279 84.8612C45.8797 85.9176 44.1328 85.9176 40.6389 85.9176H19.3611C15.8672 85.9176 14.1203 85.9176 12.9721 84.8612C11.8239 83.8047 11.6788 82.0638 11.3887 78.582L6 13.9176Z" fill="#E3DFE3"/>
<path opacity="0.5" d="M12 13.9176H22L28 85.9176H18L12 13.9176Z" fill="white"/>
<g opacity="0.06">
<path d="M54 13.9176H46L40 85.9176H40.6389C44.1328 85.9176 45.8797 85.9176 47.0279 84.8612C48.1761 83.8047 48.3212 82.0638 48.6113 78.582L54 13.9176Z" fill="black" style="mix-blend-mode:soft-light"/>
</g>
<path fill-rule="evenodd" clip-rule="evenodd" d="M54 13.9176H6L6.16667 15.9176H53.8333L54 13.9176Z" fill="black" fill-opacity="0.06"/>
<path fill-rule="evenodd" clip-rule="evenodd" d="M9.83333 59.9176L10.1667 63.9176H49.8333L50.1667 59.9176H9.83333ZM19.2015 85.9176H40.7985L40.6389 85.9177H19.3611L19.2015 85.9176Z" fill="#D27F55" fill-opacity="0.3"/>
<path fill-rule="evenodd" clip-rule="evenodd" d="M50.6528 25.9176C52.6869 25.9176 53.704 25.9176 54.2982 26.5634C54.8924 27.2092 54.8079 28.2228 54.639 30.2498L52.3057 58.2498C52.1606 59.9907 52.088 60.8612 51.514 61.3894C50.9399 61.9176 50.0664 61.9176 48.3195 61.9176H11.6805C9.9336 61.9176 9.06013 61.9176 8.48605 61.3894C7.91196 60.8612 7.83942 59.9907 7.69435 58.2498L5.36101 30.2498C5.19209 28.2228 5.10763 27.2092 5.70183 26.5634C6.29604 25.9176 7.31309 25.9176 9.3472 25.9176H50.6528Z" fill="#E59A61"/>
<g opacity="0.4">
<path fill-rule="evenodd" clip-rule="evenodd" d="M19 25.9176L22 61.9176H12L9 25.9176H19Z" fill="white" style="mix-blend-mode:soft-light"/>
</g>
<path style="mix-blend-mode:soft-light" fill-rule="evenodd" clip-rule="evenodd" d="M48 61.9177H48.3195C50.0664 61.9177 50.9399 61.9177 51.514 61.3894C52.088 60.8612 52.1606 59.9907 52.3057 58.2498L54.639 30.2498C54.8079 28.2228 54.8924 27.2092 54.2982 26.5634C53.7388 25.9555 52.8046 25.9199 51 25.9178L48 61.9177Z" fill="black" fill-opacity="0.4"/>
<path fill-rule="evenodd" clip-rule="evenodd" d="M13 35.9176C13 35.3654 13.4477 34.9176 14 34.9176C14.5523 34.9176 15 35.3654 15 35.9176V51.9176C15 52.4699 14.5523 52.9176 14 52.9176C13.4477 52.9176 13 52.4699 13 51.9176V35.9176ZM17 35.9176C17 35.3654 17.4477 34.9176 18 34.9176C18.5523 34.9176 19 35.3654 19 35.9176V51.9176C19 52.4699 18.5523 52.9176 18 52.9176C17.4477 52.9176 17 52.4699 17 51.9176V35.9176ZM22 34.9176C21.4477 34.9176 21 35.3654 21 35.9176V51.9176C21 52.4699 21.4477 52.9176 22 52.9176C22.5523 52.9176 23 52.4699 23 51.9176V35.9176C23 35.3654 22.5523 34.9176 22 34.9176ZM25 35.9176C25 35.3654 25.4477 34.9176 26 34.9176C26.5523 34.9176 27 35.3654 27 35.9176V51.9176C27 52.4699 26.5523 52.9176 26 52.9176C25.4477 52.9176 25 52.4699 25 51.9176V35.9176ZM30 34.9176C29.4477 34.9176 29 35.3654 29 35.9176V51.9176C29 52.4699 29.4477 52.9176 30 52.9176C30.5523 52.9176 31 52.4699 31 51.9176V35.9176C31 35.3654 30.5523 34.9176 30 34.9176ZM33 35.9176C33 35.3654 33.4477 34.9176 34 34.9176C34.5523 34.9176 35 35.3654 35 35.9176V51.9176C35 52.4699 34.5523 52.9176 34 52.9176C33.4477 52.9176 33 52.4699 33 51.9176V35.9176ZM38 34.9176C37.4477 34.9176 37 35.3654 37 35.9176V51.9176C37 52.4699 37.4477 52.9176 38 52.9176C38.5523 52.9176 39 52.4699 39 51.9176V35.9176C39 35.3654 38.5523 34.9176 38 34.9176ZM41 35.9176C41 35.3654 41.4477 34.9176 42 34.9176C42.5523 34.9176 43 35.3654 43 35.9176V51.9176C43 52.4699 42.5523 52.9176 42 52.9176C41.4477 52.9176 41 52.4699 41 51.9176V35.9176ZM46 34.9176C45.4477 34.9176 45 35.3654 45 35.9176V51.9176C45 52.4699 45.4477 52.9176 46 52.9176C46.5523 52.9176 47 52.4699 47 51.9176V35.9176C47 35.3654 46.5523 34.9176 46 34.9176Z" fill="#AB604B" style="mix-blend-mode:darken"/>
<path d="M8.17661 5.47018C9.05663 2.8301 9.49665 1.51006 10.5442 0.755031C11.5917 0 12.9832 0 15.7661 0H44.2339C47.0168 0 48.4083 0 49.4558 0.755031C50.5034 1.51006 50.9434 2.8301 51.8234 5.47018L54 12H6L8.17661 5.47018Z" fill="#F2EDF2"/>
<path opacity="0.5" d="M16 0H26L22 12H12L16 0Z" fill="white"/>
<g opacity="0.06">
<path d="M46 12H54L51.8234 5.47018C50.9434 2.8301 50.5034 1.51006 49.4558 0.755032C48.4083 0 47.0168 0 44.2339 0H42L46 12Z" fill="black" style="mix-blend-mode:soft-light"/>
</g>
<rect y="12" width="60" height="8" rx="2" fill="#F2EDF2"/>
<path opacity="0.5" d="M8 12H18V20H8V12Z" fill="white"/>
<g opacity="0.06">
<path d="M52 12H56C57.8856 12 58.8284 12 59.4142 12.5858C60 13.1716 60 14.1144 60 16C60 17.8856 60 18.8284 59.4142 19.4142C58.8284 20 57.8856 20 56 20H52V12Z" fill="black" style="mix-blend-mode:soft-light"/>
</g>
</svg>
