<svg width="60" height="91" viewBox="0 0 60 91" fill="none" xmlns="http://www.w3.org/2000/svg">
<g clip-path="url(#clip0_838_28774)">
<mask id="path-1-inside-1_838_28774" fill="white">
<path fill-rule="evenodd" clip-rule="evenodd" d="M54 11.9176H6V13.9176L11.3887 78.582C11.6788 82.0638 11.8239 83.8047 12.9721 84.8612C14.1203 85.9176 15.8672 85.9176 19.3611 85.9176H40.6389C44.1328 85.9176 45.8797 85.9176 47.0279 84.8612C48.1761 83.8047 48.3212 82.0638 48.6113 78.582L54 13.9176V11.9176Z"/>
</mask>
<path fill-rule="evenodd" clip-rule="evenodd" d="M54 11.9176H6V13.9176L11.3887 78.582C11.6788 82.0638 11.8239 83.8047 12.9721 84.8612C14.1203 85.9176 15.8672 85.9176 19.3611 85.9176H40.6389C44.1328 85.9176 45.8797 85.9176 47.0279 84.8612C48.1761 83.8047 48.3212 82.0638 48.6113 78.582L54 13.9176V11.9176Z" fill="#ECE8FF"/>
<path d="M6 11.9176V9.91765H4V11.9176H6ZM54 11.9176H56V9.91765H54V11.9176ZM6 13.9176H4V14.0008L4.00691 14.0837L6 13.9176ZM11.3887 78.582L9.39561 78.7481L11.3887 78.582ZM12.9721 84.8612L11.6179 86.3329L11.6179 86.333L12.9721 84.8612ZM47.0279 84.8612L48.3821 86.333L48.3821 86.3329L47.0279 84.8612ZM48.6113 78.582L50.6044 78.7481L48.6113 78.582ZM54 13.9176L55.9931 14.0837L56 14.0008V13.9176H54ZM6 13.9176H54V9.91765H6V13.9176ZM8 13.9176V11.9176H4V13.9176H8ZM13.3818 78.4159L7.99309 13.7516L4.00691 14.0837L9.39561 78.7481L13.3818 78.4159ZM14.3263 83.3894C14.174 83.2493 13.984 82.9998 13.8137 82.2097C13.6314 81.3636 13.5313 80.2106 13.3818 78.4159L9.39561 78.7481C9.5362 80.4352 9.65377 81.8936 9.90353 83.0525C10.1654 84.2674 10.622 85.4166 11.6179 86.3329L14.3263 83.3894ZM19.3611 83.9176C17.5601 83.9176 16.4028 83.9137 15.5445 83.8022C14.743 83.6982 14.4786 83.5296 14.3263 83.3894L11.6179 86.333C12.6137 87.2493 13.7969 87.6089 15.0294 87.7689C16.205 87.9216 17.6681 87.9176 19.3611 87.9176V83.9176ZM40.6389 83.9176H19.3611V87.9176H40.6389V83.9176ZM45.6737 83.3894C45.5214 83.5296 45.257 83.6982 44.4555 83.8022C43.5972 83.9137 42.4399 83.9176 40.6389 83.9176V87.9176C42.3319 87.9176 43.795 87.9216 44.9706 87.7689C46.2031 87.6089 47.3863 87.2493 48.3821 86.333L45.6737 83.3894ZM46.6182 78.4159C46.4687 80.2106 46.3686 81.3636 46.1863 82.2097C46.016 82.9998 45.826 83.2493 45.6737 83.3894L48.3821 86.3329C49.378 85.4166 49.8346 84.2674 50.0965 83.0525C50.3462 81.8936 50.4638 80.4352 50.6044 78.7481L46.6182 78.4159ZM52.0069 13.7516L46.6182 78.4159L50.6044 78.7481L55.9931 14.0837L52.0069 13.7516ZM52 11.9176V13.9176H56V11.9176H52Z" fill="#CECCF1" mask="url(#path-1-inside-1_838_28774)"/>
<path fill-rule="evenodd" clip-rule="evenodd" d="M6.83337 23.9176L11.3887 78.582C11.6789 82.0638 11.824 83.8047 12.9721 84.8612C14.1203 85.9176 15.8672 85.9176 19.3611 85.9176H40.639C44.1328 85.9176 45.8798 85.9176 47.0279 84.8612C48.1761 83.8047 48.3212 82.0638 48.6113 78.582L53.1667 23.9176H6.83337Z" fill="#E59A61"/>
<path fill-rule="evenodd" clip-rule="evenodd" d="M18 85.9176H28L22.8334 23.9176H12.8334L18 85.9176Z" fill="#F5BE80"/>
<path opacity="0.5" fill-rule="evenodd" clip-rule="evenodd" d="M22 13.9176H12L12.8333 23.9176H22.8333L22 13.9176Z" fill="white"/>
<path fill-rule="evenodd" clip-rule="evenodd" d="M53.1667 23.9176H45.1667L40 85.9176H40.6389C44.1328 85.9176 45.8797 85.9176 47.0279 84.8612C48.1587 83.8207 48.3165 82.1165 48.5982 78.7393C48.6025 78.6873 48.6069 78.6348 48.6113 78.582L53.1667 23.9176Z" fill="#C7754F"/>
<g opacity="0.06">
<path fill-rule="evenodd" clip-rule="evenodd" d="M46 13.9176H54L53.1666 23.9176H45.1666L46 13.9176Z" fill="black" style="mix-blend-mode:soft-light"/>
</g>
<g opacity="0.06">
<path fill-rule="evenodd" clip-rule="evenodd" d="M54 13.9176H6L6.16667 15.9176H53.8333L54 13.9176Z" fill="black" style="mix-blend-mode:soft-light"/>
</g>
<path fill-rule="evenodd" clip-rule="evenodd" d="M18.3539 41.5826L19.5102 47.0227C19.6128 47.5053 19.9739 47.8794 20.4147 47.9595L24.6445 48.7287L23.3174 42.4852L28.1354 39.5035L23.2464 38.9099C23.0367 38.8845 22.8277 38.9284 22.6461 39.0362L18.3539 41.5826Z" fill="#ECE8FF" fill-opacity="0.2"/>
<path d="M28.1354 39.5035L23.3174 42.4852L24.6445 48.7287L28.8023 46.1555C29.1957 45.9121 29.3904 45.4079 29.2841 44.908L28.1354 39.5035Z" fill="#ECE8FF" fill-opacity="0.2"/>
<path d="M18.3539 41.5826L23.3174 42.4852M18.3539 41.5826L19.5102 47.0227M18.3539 41.5826L22.6461 39.0362M28.1354 39.5035L23.3174 42.4852M28.1354 39.5035L23.2464 38.9099M28.1354 39.5035L29.2841 44.908M23.3174 42.4852L24.6445 48.7287M24.6445 48.7287L28.8023 46.1555M24.6445 48.7287L20.4147 47.9595M19.5102 47.0227C19.6128 47.5053 19.9739 47.8794 20.4147 47.9595M19.5102 47.0227L19.5259 47.0967C19.5409 47.1672 19.5484 47.2025 19.5574 47.2343C19.6548 47.5788 19.929 47.8449 20.2761 47.9321C20.3082 47.9401 20.3437 47.9466 20.4147 47.9595V47.9595M22.6461 39.0362C22.8277 38.9284 23.0367 38.8845 23.2464 38.9099M22.6461 39.0362V39.0362C22.8268 38.929 23.0379 38.8846 23.2464 38.9099V38.9099M29.2841 44.908C29.3904 45.4079 29.1957 45.9121 28.8023 46.1555M29.2841 44.908L29.3011 44.9876C29.3156 45.0559 29.3228 45.09 29.3274 45.1214C29.3821 45.4933 29.2236 45.8643 28.9172 46.082C28.8913 46.1004 28.8617 46.1188 28.8023 46.1555V46.1555" stroke="#EFDFDC" stroke-width="1.4" stroke-linejoin="round"/>
<path fill-rule="evenodd" clip-rule="evenodd" d="M34.6461 51.5826L33.4898 57.0227C33.3872 57.5053 33.565 57.9939 33.935 58.2464L37.4862 60.6695L38.8133 54.426L44.4276 53.6617L40.2027 51.131C40.0215 51.0224 39.8127 50.9776 39.603 51.0021L34.6461 51.5826Z" fill="#ECE8FF" fill-opacity="0.2"/>
<path d="M44.4276 53.6617L38.8133 54.426L37.4862 60.6695L42.3313 60.0099C42.7896 59.9475 43.1726 59.5662 43.2788 59.0662L44.4276 53.6617Z" fill="#ECE8FF" fill-opacity="0.2"/>
<path d="M34.6461 51.5826L38.8133 54.426M34.6461 51.5826L33.4898 57.0227M34.6461 51.5826L39.603 51.0021M44.4276 53.6617L38.8133 54.426M44.4276 53.6617L40.2027 51.131M44.4276 53.6617L43.2788 59.0662M38.8133 54.426L37.4862 60.6695M37.4862 60.6695L42.3313 60.0099M37.4862 60.6695L33.935 58.2464M33.4898 57.0227C33.3872 57.5053 33.565 57.9939 33.935 58.2464M33.4898 57.0227L33.4741 57.0967C33.4591 57.1672 33.4516 57.2025 33.4468 57.2352C33.3957 57.5895 33.5379 57.9441 33.8196 58.165C33.8456 58.1854 33.8754 58.2057 33.935 58.2464V58.2464M39.603 51.0021C39.8127 50.9776 40.0215 51.0224 40.2027 51.131M39.603 51.0021V51.0021C39.8116 50.9777 40.0225 51.023 40.2027 51.131V51.131M43.2788 59.0662C43.1726 59.5662 42.7896 59.9475 42.3313 60.0099M43.2788 59.0662L43.2619 59.1458C43.2474 59.2141 43.2401 59.2482 43.2316 59.2788C43.1302 59.6407 42.8345 59.9153 42.4661 59.9895C42.435 59.9958 42.4004 60.0005 42.3313 60.0099V60.0099" stroke="#EFDFDC" stroke-width="1.4" stroke-linejoin="round"/>
<path fill-rule="evenodd" clip-rule="evenodd" d="M15.8511 65.3917L18.6319 70.2082C18.8786 70.6355 19.3376 70.8797 19.7815 70.8197L24.042 70.2442L20.8505 64.7164L24.5113 60.3917L19.6782 61.338C19.4709 61.3786 19.2858 61.485 19.1463 61.6436L15.8511 65.3917Z" fill="#ECE8FF" fill-opacity="0.2"/>
<path d="M24.5113 60.3917L20.8505 64.7164L24.042 70.2442L27.2012 66.5121C27.5001 66.159 27.5295 65.6194 27.2739 65.1768L24.5113 60.3917Z" fill="#ECE8FF" fill-opacity="0.2"/>
<path d="M15.8511 65.3917L20.8505 64.7164M15.8511 65.3917L18.6319 70.2082M15.8511 65.3917L19.1463 61.6436M24.5113 60.3917L20.8505 64.7164M24.5113 60.3917L19.6782 61.338M24.5113 60.3917L27.2739 65.1768M20.8505 64.7164L24.042 70.2442M24.042 70.2442L27.2012 66.5121M24.042 70.2442L19.7815 70.8197M18.6319 70.2082C18.8786 70.6355 19.3376 70.8797 19.7815 70.8197M18.6319 70.2082L18.6697 70.2738C18.7058 70.3362 18.7238 70.3674 18.7422 70.3949C18.9413 70.6924 19.2842 70.8608 19.6413 70.8365C19.6743 70.8342 19.7101 70.8294 19.7815 70.8197V70.8197M19.1463 61.6436C19.2858 61.485 19.4709 61.3786 19.6782 61.338M19.1463 61.6436V61.6436C19.285 61.4858 19.4721 61.3784 19.6782 61.338V61.338M27.2739 65.1768C27.5295 65.6194 27.5001 66.159 27.2012 66.5121M27.2739 65.1768L27.3146 65.2472C27.3495 65.3077 27.367 65.3379 27.3811 65.3664C27.548 65.7031 27.5119 66.105 27.2878 66.4067C27.2689 66.4322 27.2463 66.4588 27.2012 66.5121V66.5121" stroke="#EFDFDC" stroke-width="1.4" stroke-linejoin="round"/>
</g>
<path d="M8.17661 5.47018C9.05663 2.8301 9.49665 1.51006 10.5442 0.755031C11.5917 0 12.9832 0 15.7661 0H44.2339C47.0168 0 48.4083 0 49.4558 0.755031C50.5034 1.51006 50.9434 2.8301 51.8234 5.47018L54 12H6L8.17661 5.47018Z" fill="#F2EDF2"/>
<path opacity="0.5" d="M16 0H26L22 12H12L16 0Z" fill="white"/>
<g opacity="0.06">
<path d="M46 12H54L51.8234 5.47018C50.9434 2.8301 50.5034 1.51006 49.4558 0.755032C48.4083 0 47.0168 0 44.2339 0H42L46 12Z" fill="black" style="mix-blend-mode:soft-light"/>
</g>
<rect y="12" width="60" height="8" rx="2" fill="#F2EDF2"/>
<path opacity="0.5" d="M8 12H18V20H8V12Z" fill="white"/>
<g opacity="0.06">
<path d="M52 12H56C57.8856 12 58.8284 12 59.4142 12.5858C60 13.1716 60 14.1144 60 16C60 17.8856 60 18.8284 59.4142 19.4142C58.8284 20 57.8856 20 56 20H52V12Z" fill="black" style="mix-blend-mode:soft-light"/>
</g>
<defs>
<clipPath id="clip0_838_28774">
<rect width="52" height="77.0824" fill="white" transform="translate(4 13.9176)"/>
</clipPath>
</defs>
</svg>
