<svg width="60" height="91" viewBox="0 0 60 91" fill="none" xmlns="http://www.w3.org/2000/svg">
<g clip-path="url(#clip0_838_28775)">
<mask id="path-1-inside-1_838_28775" fill="white">
<path fill-rule="evenodd" clip-rule="evenodd" d="M54 11.9176H6V13.9176L11.3887 78.582C11.6788 82.0638 11.8239 83.8047 12.9721 84.8612C14.1203 85.9176 15.8672 85.9176 19.3611 85.9176H40.6389C44.1328 85.9176 45.8797 85.9176 47.0279 84.8612C48.1761 83.8047 48.3212 82.0638 48.6113 78.582L54 13.9176V11.9176Z"/>
</mask>
<path fill-rule="evenodd" clip-rule="evenodd" d="M54 11.9176H6V13.9176L11.3887 78.582C11.6788 82.0638 11.8239 83.8047 12.9721 84.8612C14.1203 85.9176 15.8672 85.9176 19.3611 85.9176H40.6389C44.1328 85.9176 45.8797 85.9176 47.0279 84.8612C48.1761 83.8047 48.3212 82.0638 48.6113 78.582L54 13.9176V11.9176Z" fill="#ECE8FF"/>
<path d="M6 11.9176V9.91765H4V11.9176H6ZM54 11.9176H56V9.91765H54V11.9176ZM6 13.9176H4V14.0008L4.00691 14.0837L6 13.9176ZM11.3887 78.582L9.39561 78.7481L11.3887 78.582ZM12.9721 84.8612L11.6179 86.3329L11.6179 86.333L12.9721 84.8612ZM47.0279 84.8612L48.3821 86.333L48.3821 86.3329L47.0279 84.8612ZM48.6113 78.582L50.6044 78.7481L48.6113 78.582ZM54 13.9176L55.9931 14.0837L56 14.0008V13.9176H54ZM6 13.9176H54V9.91765H6V13.9176ZM8 13.9176V11.9176H4V13.9176H8ZM13.3818 78.4159L7.99309 13.7516L4.00691 14.0837L9.39561 78.7481L13.3818 78.4159ZM14.3263 83.3894C14.174 83.2493 13.984 82.9998 13.8137 82.2097C13.6314 81.3636 13.5313 80.2106 13.3818 78.4159L9.39561 78.7481C9.5362 80.4352 9.65377 81.8936 9.90353 83.0525C10.1654 84.2674 10.622 85.4166 11.6179 86.3329L14.3263 83.3894ZM19.3611 83.9176C17.5601 83.9176 16.4028 83.9137 15.5445 83.8022C14.743 83.6982 14.4786 83.5296 14.3263 83.3894L11.6179 86.333C12.6137 87.2493 13.7969 87.6089 15.0294 87.7689C16.205 87.9216 17.6681 87.9176 19.3611 87.9176V83.9176ZM40.6389 83.9176H19.3611V87.9176H40.6389V83.9176ZM45.6737 83.3894C45.5214 83.5296 45.257 83.6982 44.4555 83.8022C43.5972 83.9137 42.4399 83.9176 40.6389 83.9176V87.9176C42.3319 87.9176 43.795 87.9216 44.9706 87.7689C46.2031 87.6089 47.3863 87.2493 48.3821 86.333L45.6737 83.3894ZM46.6182 78.4159C46.4687 80.2106 46.3686 81.3636 46.1863 82.2097C46.016 82.9998 45.826 83.2493 45.6737 83.3894L48.3821 86.3329C49.378 85.4166 49.8346 84.2674 50.0965 83.0525C50.3462 81.8936 50.4638 80.4352 50.6044 78.7481L46.6182 78.4159ZM52.0069 13.7516L46.6182 78.4159L50.6044 78.7481L55.9931 14.0837L52.0069 13.7516ZM52 11.9176V13.9176H56V11.9176H52Z" fill="#CECCF1" mask="url(#path-1-inside-1_838_28775)"/>
<path fill-rule="evenodd" clip-rule="evenodd" d="M6.83331 23.9176L11.3887 78.582C11.6788 82.0638 11.8239 83.8047 12.9721 84.8612C14.1202 85.9176 15.8672 85.9176 19.361 85.9176H40.6389C44.1328 85.9176 45.8797 85.9176 47.0279 84.8612C48.1761 83.8047 48.3211 82.0638 48.6113 78.582L53.1666 23.9176H6.83331Z" fill="#A8594A"/>
<path opacity="0.6" fill-rule="evenodd" clip-rule="evenodd" d="M18 85.9176H28L22.8333 23.9176H12.8333L18 85.9176Z" fill="#D37F53"/>
<path opacity="0.5" fill-rule="evenodd" clip-rule="evenodd" d="M22 13.9176H12L12.8333 23.9176H22.8333L22 13.9176Z" fill="white"/>
<path fill-rule="evenodd" clip-rule="evenodd" d="M53.1667 23.9176H45.1667L40 85.9176H40.6389C44.1328 85.9176 45.8797 85.9176 47.0279 84.8612C48.1587 83.8207 48.3165 82.1165 48.5982 78.7393C48.6025 78.6873 48.6069 78.6348 48.6113 78.582L53.1667 23.9176Z" fill="#843C3D"/>
<g opacity="0.06">
<path fill-rule="evenodd" clip-rule="evenodd" d="M46 13.9176H54L53.1667 23.9176H45.1667L46 13.9176Z" fill="black" style="mix-blend-mode:soft-light"/>
</g>
<g opacity="0.06">
<path fill-rule="evenodd" clip-rule="evenodd" d="M54 13.9176H6L6.16667 15.9176H53.8333L54 13.9176Z" fill="black" style="mix-blend-mode:soft-light"/>
</g>
<path fill-rule="evenodd" clip-rule="evenodd" d="M25.3539 44.5826L26.5102 50.0227C26.6128 50.5053 26.435 50.9939 26.065 51.2464L22.5138 53.6695L21.1867 47.426L15.5724 46.6617L19.7973 44.131C19.9785 44.0224 20.1873 43.9776 20.397 44.0021L25.3539 44.5826Z" fill="#ECE8FF" fill-opacity="0.6"/>
<path d="M15.5724 46.6617L21.1867 47.426L22.5138 53.6695L17.6687 53.0099C17.2104 52.9475 16.8274 52.5662 16.7212 52.0662L15.5724 46.6617Z" fill="#ECE8FF" fill-opacity="0.6"/>
<path d="M25.3539 44.5826L21.1867 47.426M25.3539 44.5826L26.5102 50.0227M25.3539 44.5826L20.397 44.0021M15.5724 46.6617L21.1867 47.426M15.5724 46.6617L19.7973 44.131M15.5724 46.6617L16.7212 52.0662M21.1867 47.426L22.5138 53.6695M22.5138 53.6695L17.6687 53.0099M22.5138 53.6695L26.065 51.2464M26.5102 50.0227C26.6128 50.5053 26.435 50.9939 26.065 51.2464M26.5102 50.0227L26.5259 50.0967C26.5409 50.1672 26.5484 50.2025 26.5532 50.2352C26.6043 50.5895 26.4621 50.9441 26.1804 51.165C26.1544 51.1854 26.1246 51.2057 26.065 51.2464V51.2464M20.397 44.0021C20.1873 43.9776 19.9785 44.0224 19.7973 44.131M20.397 44.0021V44.0021C20.1884 43.9777 19.9775 44.023 19.7973 44.131V44.131M16.7212 52.0662C16.8274 52.5662 17.2104 52.9475 17.6687 53.0099M16.7212 52.0662L16.7381 52.1458C16.7526 52.2141 16.7599 52.2482 16.7684 52.2788C16.8698 52.6407 17.1655 52.9153 17.5339 52.9895C17.565 52.9958 17.5996 53.0005 17.6687 53.0099V53.0099" stroke="#EFDFDC" stroke-width="1.4" stroke-linejoin="round"/>
<path fill-rule="evenodd" clip-rule="evenodd" d="M44.1489 58.3917L41.3681 63.2082C41.1214 63.6355 40.6624 63.8797 40.2185 63.8197L35.958 63.2442L39.1495 57.7164L35.4887 53.3917L40.3218 54.338C40.5291 54.3786 40.7142 54.485 40.8537 54.6436L44.1489 58.3917Z" fill="#ECE8FF" fill-opacity="0.6"/>
<path d="M35.4887 53.3917L39.1495 57.7164L35.958 63.2442L32.7988 59.5121C32.4999 59.159 32.4705 58.6194 32.7261 58.1768L35.4887 53.3917Z" fill="#ECE8FF" fill-opacity="0.6"/>
<path d="M44.1489 58.3917L39.1495 57.7164M44.1489 58.3917L41.3681 63.2082M44.1489 58.3917L40.8537 54.6436M35.4887 53.3917L39.1495 57.7164M35.4887 53.3917L40.3218 54.338M35.4887 53.3917L32.7261 58.1768M39.1495 57.7164L35.958 63.2442M35.958 63.2442L32.7988 59.5121M35.958 63.2442L40.2185 63.8197M41.3681 63.2082C41.1214 63.6355 40.6624 63.8797 40.2185 63.8197M41.3681 63.2082L41.3303 63.2738C41.2942 63.3362 41.2762 63.3674 41.2578 63.3949C41.0587 63.6924 40.7158 63.8608 40.3587 63.8365C40.3257 63.8342 40.2899 63.8294 40.2185 63.8197V63.8197M40.8537 54.6436C40.7142 54.485 40.5291 54.3786 40.3218 54.338M40.8537 54.6436V54.6436C40.715 54.4858 40.5279 54.3784 40.3218 54.338V54.338M32.7261 58.1768C32.4705 58.6194 32.4999 59.159 32.7988 59.5121M32.7261 58.1768L32.6854 58.2472C32.6505 58.3077 32.633 58.3379 32.6189 58.3664C32.452 58.7031 32.4881 59.105 32.7122 59.4067C32.7311 59.4322 32.7537 59.4588 32.7988 59.5121V59.5121" stroke="#EFDFDC" stroke-width="1.4" stroke-linejoin="round"/>
</g>
<mask id="path-13-inside-2_838_28775" fill="white">
<path fill-rule="evenodd" clip-rule="evenodd" d="M10.5442 0.755031C9.49665 1.51006 9.05663 2.8301 8.17661 5.47018L6 12V14H54V12L51.8234 5.47018C50.9434 2.8301 50.5034 1.51006 49.4558 0.755031C48.4083 0 47.0168 0 44.2339 0H15.7661C12.9832 0 11.5917 0 10.5442 0.755031Z"/>
</mask>
<path fill-rule="evenodd" clip-rule="evenodd" d="M10.5442 0.755031C9.49665 1.51006 9.05663 2.8301 8.17661 5.47018L6 12V14H54V12L51.8234 5.47018C50.9434 2.8301 50.5034 1.51006 49.4558 0.755031C48.4083 0 47.0168 0 44.2339 0H15.7661C12.9832 0 11.5917 0 10.5442 0.755031Z" fill="#ECE8FF"/>
<path d="M8.17661 5.47018L6.27924 4.83772H6.27924L8.17661 5.47018ZM10.5442 0.755031L9.37478 -0.867453L9.37477 -0.867453L10.5442 0.755031ZM6 12L4.10263 11.3675L4 11.6754V12H6ZM6 14H4V16H6V14ZM54 14V16H56V14H54ZM54 12H56V11.6754L55.8974 11.3675L54 12ZM51.8234 5.47018L49.926 6.10263V6.10263L51.8234 5.47018ZM10.074 6.10263C10.5286 4.73889 10.8192 3.87637 11.111 3.24931C11.381 2.66887 11.5685 2.48213 11.7136 2.37752L9.37477 -0.867453C8.47237 -0.217036 7.91608 0.633755 7.4842 1.56212C7.07401 2.44385 6.70469 3.56138 6.27924 4.83772L10.074 6.10263ZM7.89737 12.6325L10.074 6.10263L6.27924 4.83772L4.10263 11.3675L7.89737 12.6325ZM8 14V12H4V14H8ZM54 12H6V16H54V12ZM52 12V14H56V12H52ZM49.926 6.10263L52.1026 12.6325L55.8974 11.3675L53.7208 4.83772L49.926 6.10263ZM48.2864 2.37752C48.4315 2.48213 48.619 2.66887 48.889 3.24931C49.1808 3.87637 49.4714 4.73889 49.926 6.10263L53.7208 4.83772C53.2953 3.56139 52.926 2.44385 52.5158 1.56212C52.0839 0.633754 51.5276 -0.217037 50.6252 -0.867453L48.2864 2.37752ZM44.2339 2C45.6714 2 46.5816 2.00302 47.2688 2.08147C47.9048 2.15409 48.1412 2.2729 48.2864 2.37752L50.6252 -0.867453C49.7228 -1.51787 48.7398 -1.77657 47.7225 -1.89271C46.7563 -2.00302 45.5793 -2 44.2339 -2V2ZM15.7661 2H44.2339V-2H15.7661V2ZM11.7136 2.37752C11.8588 2.2729 12.0952 2.15409 12.7312 2.08147C13.4184 2.00302 14.3286 2 15.7661 2V-2C14.4207 -2 13.2437 -2.00302 12.2775 -1.89271C11.2602 -1.77657 10.2772 -1.51787 9.37478 -0.867453L11.7136 2.37752Z" fill="#CECCF1" mask="url(#path-13-inside-2_838_28775)"/>
<g opacity="0.06">
<path fill-rule="evenodd" clip-rule="evenodd" d="M42.6667 2L46 12H51.8918L49.926 6.10263C49.4715 4.73889 49.1808 3.87637 48.889 3.24931C48.619 2.66887 48.4315 2.48213 48.2864 2.37752C48.1412 2.2729 47.9048 2.15409 47.2688 2.08147C46.5816 2.00302 45.6714 2 44.2339 2H42.6667Z" fill="black" style="mix-blend-mode:soft-light"/>
</g>
<path opacity="0.5" fill-rule="evenodd" clip-rule="evenodd" d="M15.3333 2.00018L12 12H22L25.3333 2H15.7661C15.6162 2 15.472 2.00003 15.3333 2.00018Z" fill="white"/>
<rect x="1" y="13" width="58" height="6" rx="1" fill="#ECE8FF" stroke="#CECCF1" stroke-width="2"/>
<path opacity="0.5" d="M8 14H18V18H8V14Z" fill="white"/>
<g opacity="0.06">
<path d="M52 14H58V18H52V14Z" fill="black" style="mix-blend-mode:soft-light"/>
</g>
<defs>
<clipPath id="clip0_838_28775">
<rect width="52" height="77.0824" fill="white" transform="translate(4 13.9176)"/>
</clipPath>
</defs>
</svg>
