<svg width="62" height="91" viewBox="0 0 62 91" fill="none" xmlns="http://www.w3.org/2000/svg">
<path d="M28 13C18.6203 13.5072 12 12.8588 12 14L13.5 28C6.71541 27.0295 0 21.0529 0 14C0 6.26801 6.26801 0 14 0C20.8293 0 26.7651 6.53052 28 13Z" fill="#FFD84D"/>
<path fill-rule="evenodd" clip-rule="evenodd" d="M26 13C26.6551 12.9577 27.3111 13.0372 28 13C26.7651 6.53052 20.8293 0 14 0C6.26801 0 0 6.26801 0 14C0 21.0529 6.71541 27.0295 13.5 28V26C7.5 25.5 2 19.946 2 14C2 7.37258 7.37258 2 14 2C19.7626 2 24.8418 7.58313 26 13Z" fill="#EEC42E"/>
<path fill-rule="evenodd" clip-rule="evenodd" d="M19.5 13C14.7384 13.531 12.5 13.2306 12.5 14L13 20C10.6696 19.1763 8 16.6124 8 14C8 10.6863 10.6863 8 14 8C16.6117 8 18.6757 10.6707 19.5 13Z" fill="#FFECA9"/>
<path fill-rule="evenodd" clip-rule="evenodd" d="M5.20006 6.40006C5.53143 5.95823 6.15823 5.86869 6.60006 6.20006L10.6001 9.20006C11.0419 9.53143 11.1314 10.1582 10.8001 10.6001C10.4687 11.0419 9.84189 11.1314 9.40006 10.8001L5.40006 7.80006C4.95823 7.46869 4.86869 6.84189 5.20006 6.40006Z" fill="#FFECA9"/>
<path fill-rule="evenodd" clip-rule="evenodd" d="M9.96501 14.2371C10.1103 14.77 9.79619 15.3197 9.26337 15.465L3.76337 16.965C3.23054 17.1103 2.6808 16.7962 2.53549 16.2634C2.39017 15.7305 2.70431 15.1808 3.23713 15.0355L8.73713 13.5355C9.26996 13.3902 9.8197 13.7043 9.96501 14.2371Z" fill="#FFECA9"/>
<path fill-rule="evenodd" clip-rule="evenodd" d="M15.0996 2.50504C15.6491 2.55999 16.0501 3.05003 15.9951 3.59958L15.4951 8.59958C15.4402 9.14912 14.9501 9.55007 14.4006 9.49511C13.851 9.44016 13.4501 8.95012 13.505 8.40057L14.005 3.40057C14.06 2.85103 14.55 2.45008 15.0996 2.50504Z" fill="#FFECA9"/>
<path fill-rule="evenodd" clip-rule="evenodd" d="M9.70711 19.2929C10.0976 19.6834 10.0976 20.3166 9.70711 20.7071L7.70711 22.7071C7.31658 23.0976 6.68342 23.0976 6.29289 22.7071C5.90237 22.3166 5.90237 21.6834 6.29289 21.2929L8.29289 19.2929C8.68342 18.9024 9.31658 18.9024 9.70711 19.2929Z" fill="#FFECA9"/>
<path fill-rule="evenodd" clip-rule="evenodd" d="M22.2071 6.29289C22.5976 6.68342 22.5976 7.31658 22.2071 7.70711L20.7071 9.20711C20.3166 9.59763 19.6834 9.59763 19.2929 9.20711C18.9024 8.81658 18.9024 8.18342 19.2929 7.79289L20.7929 6.29289C21.1834 5.90237 21.8166 5.90237 22.2071 6.29289Z" fill="#FFECA9"/>
<g clip-path="url(#clip0_838_28769)">
<mask id="path-9-inside-1_838_28769" fill="white">
<path fill-rule="evenodd" clip-rule="evenodd" d="M60 11H12V13L17.3887 77.6644C17.6788 81.1462 17.8239 82.8871 18.9721 83.9435C20.1203 85 21.8672 85 25.3611 85H46.6389C50.1328 85 51.8797 85 53.0279 83.9435C54.1761 82.8871 54.3212 81.1462 54.6113 77.6644L60 13V11Z"/>
</mask>
<path fill-rule="evenodd" clip-rule="evenodd" d="M60 11H12V13L17.3887 77.6644C17.6788 81.1462 17.8239 82.8871 18.9721 83.9435C20.1203 85 21.8672 85 25.3611 85H46.6389C50.1328 85 51.8797 85 53.0279 83.9435C54.1761 82.8871 54.3212 81.1462 54.6113 77.6644L60 13V11Z" fill="#ECE8FF"/>
<path d="M12 11V9H10V11H12ZM60 11H62V9H60V11ZM12 13H10V13.0832L10.0069 13.1661L12 13ZM17.3887 77.6644L15.3956 77.8305L17.3887 77.6644ZM18.9721 83.9435L17.6179 85.4153L17.6179 85.4153L18.9721 83.9435ZM53.0279 83.9435L54.3821 85.4153L54.3821 85.4153L53.0279 83.9435ZM54.6113 77.6644L56.6044 77.8305L54.6113 77.6644ZM60 13L61.9931 13.1661L62 13.0832V13H60ZM12 13H60V9H12V13ZM14 13V11H10V13H14ZM19.3818 77.4983L13.9931 12.8339L10.0069 13.1661L15.3956 77.8305L19.3818 77.4983ZM20.3263 82.4718C20.174 82.3316 19.984 82.0822 19.8137 81.2921C19.6314 80.4459 19.5313 79.293 19.3818 77.4983L15.3956 77.8305C15.5362 79.5175 15.6538 80.9759 15.9035 82.1348C16.1654 83.3497 16.622 84.499 17.6179 85.4153L20.3263 82.4718ZM25.3611 83C23.5601 83 22.4028 82.9961 21.5445 82.8846C20.743 82.7805 20.4786 82.6119 20.3263 82.4718L17.6179 85.4153C18.6137 86.3316 19.7969 86.6913 21.0294 86.8513C22.205 87.0039 23.6681 87 25.3611 87V83ZM46.6389 83H25.3611V87H46.6389V83ZM51.6737 82.4718C51.5214 82.6119 51.257 82.7805 50.4555 82.8846C49.5972 82.9961 48.4399 83 46.6389 83V87C48.3319 87 49.795 87.0039 50.9706 86.8513C52.2031 86.6913 53.3863 86.3316 54.3821 85.4153L51.6737 82.4718ZM52.6182 77.4983C52.4687 79.293 52.3686 80.4459 52.1863 81.2921C52.016 82.0822 51.826 82.3316 51.6737 82.4718L54.3821 85.4153C55.378 84.499 55.8346 83.3497 56.0965 82.1348C56.3462 80.9759 56.4638 79.5175 56.6044 77.8305L52.6182 77.4983ZM58.0069 12.8339L52.6182 77.4983L56.6044 77.8305L61.9931 13.1661L58.0069 12.8339ZM58 11V13H62V11H58Z" fill="#CECCF1" mask="url(#path-9-inside-1_838_28769)"/>
<path fill-rule="evenodd" clip-rule="evenodd" d="M12.8334 23L17.3887 77.6644C17.6789 81.1462 17.824 82.8871 18.9721 83.9435C20.1203 85 21.8672 85 25.3611 85H46.639C50.1328 85 51.8798 85 53.0279 83.9435C54.1761 82.8871 54.3212 81.1462 54.6113 77.6644L59.1667 23H12.8334Z" fill="#FFD84D"/>
<path fill-rule="evenodd" clip-rule="evenodd" d="M24 85H34L28.8334 23H18.8334L24 85Z" fill="#EEC42E"/>
<path opacity="0.5" fill-rule="evenodd" clip-rule="evenodd" d="M28 13H18L18.8333 23H28.8333L28 13Z" fill="white"/>
<path fill-rule="evenodd" clip-rule="evenodd" d="M59.1667 23H51.1667L46 85H46.6389C50.1328 85 51.8797 85 53.0279 83.9435C54.1587 82.9031 54.3165 81.1988 54.5982 77.8217C54.6025 77.7696 54.6069 77.7172 54.6113 77.6644L59.1667 23Z" fill="#D2A70C"/>
<g opacity="0.06">
<path fill-rule="evenodd" clip-rule="evenodd" d="M52 13H60L59.1666 23H51.1666L52 13Z" fill="black" style="mix-blend-mode:soft-light"/>
</g>
<g opacity="0.06">
<path fill-rule="evenodd" clip-rule="evenodd" d="M60 13H12L12.1667 15H59.8333L60 13Z" fill="black" style="mix-blend-mode:soft-light"/>
</g>
<path fill-rule="evenodd" clip-rule="evenodd" d="M24.3539 40.6649L25.5102 46.105C25.6128 46.5876 25.9739 46.9617 26.4147 47.0419L30.6445 47.8111L29.3174 41.5676L34.1354 38.5858L29.2464 37.9923C29.0367 37.9668 28.8277 38.0108 28.6461 38.1185L24.3539 40.6649Z" fill="#ECE8FF" fill-opacity="0.2"/>
<path d="M34.1354 38.5858L29.3174 41.5676L30.6445 47.8111L34.8023 45.2379C35.1957 44.9944 35.3904 44.4903 35.2841 43.9903L34.1354 38.5858Z" fill="#ECE8FF" fill-opacity="0.2"/>
<path d="M24.3539 40.6649L29.3174 41.5676M24.3539 40.6649L25.5102 46.105M24.3539 40.6649L28.6461 38.1185M34.1354 38.5858L29.3174 41.5676M34.1354 38.5858L29.2464 37.9923M34.1354 38.5858L35.2841 43.9903M29.3174 41.5676L30.6445 47.8111M30.6445 47.8111L34.8023 45.2379M30.6445 47.8111L26.4147 47.0419M25.5102 46.105C25.6128 46.5876 25.9739 46.9617 26.4147 47.0419M25.5102 46.105L25.5259 46.179C25.5409 46.2496 25.5484 46.2848 25.5574 46.3167C25.6548 46.6611 25.929 46.9273 26.2761 47.0144C26.3082 47.0225 26.3437 47.029 26.4147 47.0419V47.0419M28.6461 38.1185C28.8277 38.0108 29.0367 37.9668 29.2464 37.9923M28.6461 38.1185V38.1185C28.8268 38.0113 29.0379 37.967 29.2464 37.9923V37.9923M35.2841 43.9903C35.3904 44.4903 35.1957 44.9944 34.8023 45.2379M35.2841 43.9903L35.3011 44.07C35.3156 44.1382 35.3228 44.1723 35.3274 44.2038C35.3821 44.5756 35.2236 44.9467 34.9172 45.1644C34.8913 45.1828 34.8617 45.2011 34.8023 45.2379V45.2379" stroke="#EFDFDC" stroke-width="1.4" stroke-linejoin="round"/>
<path fill-rule="evenodd" clip-rule="evenodd" d="M40.6461 50.6649L39.4898 56.105C39.3872 56.5876 39.565 57.0762 39.935 57.3287L43.4862 59.7519L44.8133 53.5084L50.4276 52.744L46.2027 50.2133C46.0215 50.1048 45.8127 50.0599 45.603 50.0845L40.6461 50.6649Z" fill="#ECE8FF" fill-opacity="0.2"/>
<path d="M50.4276 52.744L44.8133 53.5084L43.4862 59.7519L48.3313 59.0923C48.7896 59.0299 49.1726 58.6485 49.2788 58.1486L50.4276 52.744Z" fill="#ECE8FF" fill-opacity="0.2"/>
<path d="M40.6461 50.6649L44.8133 53.5084M40.6461 50.6649L39.4898 56.105M40.6461 50.6649L45.603 50.0845M50.4276 52.744L44.8133 53.5084M50.4276 52.744L46.2027 50.2133M50.4276 52.744L49.2788 58.1486M44.8133 53.5084L43.4862 59.7519M43.4862 59.7519L48.3313 59.0923M43.4862 59.7519L39.935 57.3287M39.4898 56.105C39.3872 56.5876 39.565 57.0762 39.935 57.3287M39.4898 56.105L39.4741 56.179C39.4591 56.2496 39.4516 56.2848 39.4468 56.3176C39.3957 56.6719 39.5379 57.0265 39.8196 57.2473C39.8456 57.2678 39.8754 57.2881 39.935 57.3287V57.3287M45.603 50.0845C45.8127 50.0599 46.0215 50.1048 46.2027 50.2133M45.603 50.0845V50.0845C45.8116 50.06 46.0225 50.1054 46.2027 50.2133V50.2133M49.2788 58.1486C49.1726 58.6485 48.7896 59.0299 48.3313 59.0923M49.2788 58.1486L49.2619 58.2282C49.2474 58.2964 49.2401 58.3306 49.2316 58.3612C49.1302 58.7231 48.8345 58.9976 48.4661 59.0719C48.435 59.0781 48.4004 59.0829 48.3313 59.0923V59.0923" stroke="#EFDFDC" stroke-width="1.4" stroke-linejoin="round"/>
<path fill-rule="evenodd" clip-rule="evenodd" d="M21.8511 64.4741L24.6319 69.2906C24.8786 69.7179 25.3376 69.962 25.7815 69.9021L30.042 69.3266L26.8505 63.7988L30.5113 59.4741L25.6782 60.4204C25.4709 60.4609 25.2858 60.5673 25.1463 60.7259L21.8511 64.4741Z" fill="#ECE8FF" fill-opacity="0.2"/>
<path d="M30.5113 59.4741L26.8505 63.7988L30.042 69.3266L33.2012 65.5944C33.5001 65.2414 33.5295 64.7017 33.2739 64.2591L30.5113 59.4741Z" fill="#ECE8FF" fill-opacity="0.2"/>
<path d="M21.8511 64.4741L26.8505 63.7988M21.8511 64.4741L24.6319 69.2906M21.8511 64.4741L25.1463 60.7259M30.5113 59.4741L26.8505 63.7988M30.5113 59.4741L25.6782 60.4204M30.5113 59.4741L33.2739 64.2591M26.8505 63.7988L30.042 69.3266M30.042 69.3266L33.2012 65.5944M30.042 69.3266L25.7815 69.9021M24.6319 69.2906C24.8786 69.7179 25.3376 69.962 25.7815 69.9021M24.6319 69.2906L24.6697 69.3561C24.7058 69.4186 24.7238 69.4498 24.7422 69.4773C24.9413 69.7748 25.2842 69.9432 25.6413 69.9188C25.6743 69.9166 25.7101 69.9117 25.7815 69.9021V69.9021M25.1463 60.7259C25.2858 60.5673 25.4709 60.4609 25.6782 60.4204M25.1463 60.7259V60.7259C25.285 60.5682 25.4721 60.4607 25.6782 60.4204V60.4204M33.2739 64.2591C33.5295 64.7017 33.5001 65.2414 33.2012 65.5944M33.2739 64.2591L33.3146 64.3296C33.3495 64.39 33.367 64.4202 33.3811 64.4487C33.548 64.7855 33.5119 65.1874 33.2878 65.4891C33.2689 65.5146 33.2463 65.5412 33.2012 65.5944V65.5944" stroke="#EFDFDC" stroke-width="1.4" stroke-linejoin="round"/>
</g>
<defs>
<clipPath id="clip0_838_28769">
<rect width="52" height="77.0824" fill="white" transform="translate(10 13)"/>
</clipPath>
</defs>
</svg>
