<svg width="104" height="41" viewBox="0 0 104 41" fill="none" xmlns="http://www.w3.org/2000/svg">
<path d="M55.2443 9.62587C59.0043 13.2852 58.9758 20.1297 54.7386 24.4833C50.2819 34.7978 43.0012 32.5959 39.2413 28.9365C35.4813 25.2772 36.5272 15.2366 40.7643 10.883C45.0015 6.52938 51.4844 5.96654 55.2443 9.62587Z" fill="black"/>
<path d="M47.7813 9.04492C48.2154 8.98831 50.2296 8.98202 50.5932 9.04492C54.0819 9.65133 50.2308 9.73562 47.3133 13.0746C44.8437 15.9015 40.2579 24.5283 43.3767 27.8824C34.7877 24.7812 40.2315 10.0187 47.7813 9.04367V9.04492Z" fill="#EAEAEA"/>
<path d="M52.4678 11.4806C55.0922 11.6668 47.8845 26.4457 44.9695 26.4759C46.3056 23.0375 45.9408 24.6202 43.6573 25.726C43.2384 21.3214 47.0995 14.6711 50.4058 11.6681C50.6737 14.8246 51.4915 11.4114 52.4678 11.4806Z" fill="#EAEAEA"/>
<path d="M54.3423 10.9183C58.9734 17.8001 53.195 28.1693 45.157 28.7254C49.7868 26.3702 55.4973 15.9431 54.3423 10.9183Z" fill="#EAEAEA"/>
<path d="M76.1275 9.56373C80.6906 6.97416 87.2553 8.91134 90.2538 14.195C98.915 21.3527 94.769 27.7298 90.2059 30.3194C85.6428 32.909 76.2928 29.103 73.2944 23.8194C70.2959 18.5358 71.5644 12.1533 76.1275 9.56373Z" fill="black"/>
<path d="M73.4872 16.5682C73.554 16.1356 74.11 14.1996 74.2718 13.868C75.8276 10.6871 74.834 14.4087 77.2263 18.142C79.2518 21.3024 86.2564 28.1131 90.3475 26.054C84.9729 33.4366 72.3157 24.0899 73.486 16.5679L73.4872 16.5682Z" fill="#EAEAEA"/>
<path d="M77.1338 12.7475C78.0449 10.2793 90.2257 21.3244 89.4413 24.132C86.5123 21.8896 87.9303 22.6816 88.3551 25.1829C84.0085 24.3562 78.6997 18.7928 76.7385 14.7799C79.8444 15.4034 76.795 13.6657 77.1338 12.7475Z" fill="#EAEAEA"/>
<path d="M77.1169 10.7905C85.0176 8.26358 93.3626 16.7058 91.6538 24.5797C90.684 19.4766 82.2644 11.0835 77.1169 10.7905Z" fill="#EAEAEA"/>
<path d="M25 18.5001C25 23.7468 20.0751 28.5001 14 28.5001C3.5 32.5001 0 25.7468 0 20.5001C0 15.2534 7.92487 9.00007 14 9.00007C20.0751 9.00007 25 13.2534 25 18.5001Z" fill="#471D12"/>
<path d="M17.5675 15.3153C18.6306 15.2486 20.5178 15.2209 20.8474 16.5331C20.9141 16.7986 20.8839 18.2894 20.7543 18.5008C20.3328 19.1827 6.57679 24.1421 5.75903 24.1245C-0.1578 23.9961 11.0808 15.7242 17.5675 15.314V15.3153Z" fill="#874C2B"/>
<path d="M14.3807 11.0037C19.052 10.8704 22.1218 14.4069 21.5041 14.7529C15.6917 12.6607 5.5514 17.5999 2.10296 22.7191C1.02351 16.3091 8.6589 11.1673 14.3807 11.0037Z" fill="#6E3D2C"/>
<path d="M20.1917 20.189L20.2848 23.8438C15.9884 27.3828 7.27102 30.0198 3.04004 25.5309C9.17074 25.4881 14.6485 22.4184 20.1917 20.189Z" fill="#6E3D2C"/>
</svg>
