<svg width="75" height="41" viewBox="0 0 75 41" fill="none" xmlns="http://www.w3.org/2000/svg">
<path d="M50.2443 9.62605C54.0043 13.2854 53.9758 20.1299 49.7386 24.4835C45.2819 34.7979 38.0012 32.5961 34.2413 28.9367C30.4813 25.2774 31.5272 15.2368 35.7643 10.8832C40.0015 6.52956 46.4844 5.96672 50.2443 9.62605Z" fill="#471D12"/>
<path d="M42.7813 9.0451C43.2154 8.98849 45.2296 8.9822 45.5932 9.0451C49.0819 9.6515 45.2308 9.7358 42.3133 13.0748C39.8437 15.9017 35.2579 24.5285 38.3767 27.8826C29.7877 24.7814 35.2315 10.0189 42.7813 9.04385V9.0451Z" fill="#6E3D2C"/>
<path d="M47.4678 11.4808C50.0922 11.667 42.8845 26.4458 39.9695 26.476C41.3056 23.0377 40.9408 24.6203 38.6573 25.7262C38.2384 21.3216 42.0995 14.6713 45.4058 11.6682C45.6737 14.8248 46.4915 11.4116 47.4678 11.4808Z" fill="#874C2B"/>
<path d="M49.3423 10.9185C53.9734 17.8003 48.195 28.1695 40.157 28.7256C44.7868 26.3704 50.4973 15.9433 49.3423 10.9185Z" fill="#6E3D2C"/>
<path d="M55.1275 9.56385C59.6906 6.97428 66.2553 8.91146 69.2538 14.1951C77.915 21.3528 73.769 27.73 69.2059 30.3195C64.6428 32.9091 55.2928 29.1031 52.2944 23.8195C49.2959 18.5359 50.5644 12.1534 55.1275 9.56385Z" fill="#471D12"/>
<path d="M52.4872 16.5683C52.554 16.1357 53.11 14.1998 53.2718 13.8682C54.8276 10.6872 53.834 14.4088 56.2263 18.1422C58.2518 21.3025 65.2564 28.1132 69.3475 26.0542C63.9729 33.4367 51.3157 24.09 52.486 16.568L52.4872 16.5683Z" fill="#6E3D2C"/>
<path d="M56.1338 12.7476C57.0449 10.2794 69.2257 21.3245 68.4413 24.1322C65.5123 21.8897 66.9303 22.6817 67.3551 25.183C63.0085 24.3563 57.6997 18.793 55.7385 14.7801C58.8444 15.4035 55.795 13.6658 56.1338 12.7476Z" fill="#874C2B"/>
<path d="M56.1169 10.7906C64.0176 8.2637 72.3626 16.7059 70.6538 24.5798C69.684 19.4768 61.2644 11.0836 56.1169 10.7906Z" fill="#6E3D2C"/>
<path d="M34 18.5004C34 23.7471 29.0751 28.5004 23 28.5004C12.5 32.5004 9 25.7471 9 20.5004C9 15.2537 16.9249 9.00037 23 9.00037C29.0751 9.00037 34 13.2537 34 18.5004Z" fill="#471D12"/>
<path d="M26.5675 15.3156C27.6306 15.2489 29.5178 15.2212 29.8474 16.5334C29.9141 16.7989 29.8839 18.2897 29.7543 18.5011C29.3328 19.183 15.5768 24.1424 14.759 24.1248C8.8422 23.9964 20.0808 15.7245 26.5675 15.3143V15.3156Z" fill="#874C2B"/>
<path d="M23.3807 11.004C28.052 10.8707 31.1218 14.4072 30.5041 14.7532C24.6917 12.661 14.5514 17.6002 11.103 22.7194C10.0235 16.3094 17.6589 11.1676 23.3807 11.004Z" fill="#6E3D2C"/>
<path d="M29.1917 20.1893L29.2848 23.8441C24.9884 27.3831 16.271 30.0201 12.04 25.5312C18.1707 25.4884 23.6485 22.4187 29.1917 20.1893Z" fill="#6E3D2C"/>
</svg>
