<?xml version="1.0" encoding="UTF-8" standalone="no"?>
<svg
   width="104"
   height="41"
   viewBox="0 0 104 41"
   fill="none"
   version="1.1"
   id="svg12"
   sodipodi:docname="loading_coffee_1.svg"
   inkscape:version="1.3 (0e150ed, 2023-07-21)"
   inkscape:export-filename="loading_coffee_1.png"
   inkscape:export-xdpi="192"
   inkscape:export-ydpi="192"
   xmlns:inkscape="http://www.inkscape.org/namespaces/inkscape"
   xmlns:sodipodi="http://sodipodi.sourceforge.net/DTD/sodipodi-0.dtd"
   xmlns="http://www.w3.org/2000/svg"
   xmlns:svg="http://www.w3.org/2000/svg">
  <defs
     id="defs12" />
  <sodipodi:namedview
     id="namedview12"
     pagecolor="#ffffff"
     bordercolor="#999999"
     borderopacity="1"
     inkscape:showpageshadow="0"
     inkscape:pageopacity="0"
     inkscape:pagecheckerboard="0"
     inkscape:deskcolor="#d1d1d1"
     showgrid="false"
     inkscape:zoom="7.2954382"
     inkscape:cx="52.635632"
     inkscape:cy="20.218114"
     inkscape:current-layer="svg12" />
  <g
     id="g15"
     transform="translate(3.7718841)">
    <g
       id="g13"
       transform="translate(0.18202166,0.90211028)">
      <path
         d="m 55.2443,9.62587 c 3.76,3.65933 3.7315,10.50383 -0.5057,14.85743 -4.4567,10.3145 -11.7374,8.1126 -15.4973,4.4532 -3.76,-3.6593 -2.7141,-13.6999 1.523,-18.0535 4.2372,-4.35362 10.7201,-4.91646 14.48,-1.25713 z"
         fill="#000000"
         id="path1" />
      <path
         d="m 47.7813,9.04492 c 0.4341,-0.05661 2.4483,-0.0629 2.8119,0 3.4887,0.60641 -0.3624,0.6907 -3.2799,4.02968 -2.4696,2.8269 -7.0554,11.4537 -3.9366,14.8078 -8.589,-3.1012 -3.1452,-17.8637 4.4046,-18.83873 z"
         fill="#eaeaea"
         id="path2" />
      <path
         d="m 52.4678,11.4806 c 2.6244,0.1862 -4.5833,14.9651 -7.4983,14.9953 1.3361,-3.4384 0.9713,-1.8557 -1.3122,-0.7499 -0.4189,-4.4046 3.4422,-11.0549 6.7485,-14.0579 0.2679,3.1565 1.0857,-0.2567 2.062,-0.1875 z"
         fill="#eaeaea"
         id="path3" />
      <path
         d="m 54.3423,10.9183 c 4.6311,6.8818 -1.1473,17.251 -9.1853,17.8071 4.6298,-2.3552 10.3403,-12.7823 9.1853,-17.8071 z"
         fill="#eaeaea"
         id="path4" />
    </g>
    <g
       id="g14"
       transform="translate(-3.1978078,0.71215689)">
      <path
         d="M 76.1275,9.56373 C 80.6906,6.97416 87.2553,8.91134 90.2538,14.195 98.915,21.3527 94.769,27.7298 90.2059,30.3194 85.6428,32.909 76.2928,29.103 73.2944,23.8194 70.2959,18.5358 71.5644,12.1533 76.1275,9.56373 Z"
         fill="#000000"
         id="path5" />
      <path
         d="m 73.4872,16.5682 c 0.0668,-0.4326 0.6228,-2.3686 0.7846,-2.7002 1.5558,-3.1809 0.5622,0.5407 2.9545,4.274 2.0255,3.1604 9.0301,9.9711 13.1212,7.912 -5.3746,7.3826 -18.0318,-1.9641 -16.8615,-9.4861 z"
         fill="#eaeaea"
         id="path6" />
      <path
         d="m 77.1338,12.7475 c 0.9111,-2.4682 13.0919,8.5769 12.3075,11.3845 -2.929,-2.2424 -1.511,-1.4504 -1.0862,1.0509 -4.3466,-0.8267 -9.6554,-6.3901 -11.6166,-10.403 3.1059,0.6235 0.0565,-1.1142 0.3953,-2.0324 z"
         fill="#eaeaea"
         id="path7" />
      <path
         d="M 77.1169,10.7905 C 85.0176,8.26358 93.3626,16.7058 91.6538,24.5797 90.684,19.4766 82.2644,11.0835 77.1169,10.7905 Z"
         fill="#eaeaea"
         id="path8" />
    </g>
    <g
       id="g12"
       transform="translate(4.3459604,1.1444493)">
      <path
         d="m 25,18.5001 c 0,5.2467 -4.9249,10 -11,10 -10.5,4 -14,-2.7533 -14,-8 0,-5.2467 7.92487,-11.50003 14,-11.50003 6.0751,0 11,4.25333 11,9.50003 z"
         fill="#471d12"
         id="path9" />
      <path
         d="m 17.5675,15.3153 c 1.0631,-0.0667 2.9503,-0.0944 3.2799,1.2178 0.0667,0.2655 0.0365,1.7563 -0.0931,1.9677 C 20.3328,19.1827 6.57679,24.1421 5.75903,24.1245 -0.1578,23.9961 11.0808,15.7242 17.5675,15.314 Z"
         fill="#874c2b"
         id="path10" />
      <path
         d="m 14.3807,11.0037 c 4.6713,-0.1333 7.7411,3.4032 7.1234,3.7492 C 15.6917,12.6607 5.5514,17.5999 2.10296,22.7191 1.02351,16.3091 8.6589,11.1673 14.3807,11.0037 Z"
         fill="#6e3d2c"
         id="path11" />
      <path
         d="m 20.1917,20.189 0.0931,3.6548 C 15.9884,27.3828 7.27102,30.0198 3.04004,25.5309 9.17074,25.4881 14.6485,22.4184 20.1917,20.189 Z"
         fill="#6e3d2c"
         id="path12" />
    </g>
  </g>
</svg>
