<svg width="96" height="96" viewBox="0 0 96 96" fill="none" xmlns="http://www.w3.org/2000/svg">
<path d="M29.728 44.1626C29.4957 43.6616 29.7136 43.0671 30.2146 42.8348C30.7157 42.6025 31.3102 42.8204 31.5425 43.3214L45.8428 74.1678C46.0751 74.6689 45.8572 75.2634 45.3562 75.4957C44.8551 75.7279 44.2606 75.5101 44.0283 75.009L29.728 44.1626Z" fill="#FAF4C6"/>
<path fill-rule="evenodd" clip-rule="evenodd" d="M33.3569 42.4802L47.6573 73.3266C48.3542 74.8298 47.7005 76.6133 46.1974 77.3102C44.6942 78.007 42.9107 77.3534 42.2138 75.8502L27.9135 45.0038C27.2166 43.5006 27.8702 41.7171 29.3734 41.0203C30.8766 40.3234 32.6601 40.977 33.3569 42.4802ZM31.5425 43.3214L45.8428 74.1678C46.0751 74.6689 45.8572 75.2634 45.3562 75.4957C44.8551 75.7279 44.2606 75.5101 44.0283 75.009L29.728 44.1626C29.4957 43.6616 29.7136 43.0671 30.2146 42.8348C30.7157 42.6025 31.3102 42.8204 31.5425 43.3214Z" fill="#E0B16A"/>
<path fill-rule="evenodd" clip-rule="evenodd" d="M34.395 47.0969C34.896 46.8646 35.4905 47.0824 35.7228 47.5835L42.6627 62.5531C42.895 63.0541 42.6771 63.6486 42.1761 63.8809C41.675 64.1132 41.0805 63.8953 40.8482 63.3943L33.9083 48.4247C33.676 47.9236 33.8939 47.3291 34.395 47.0969Z" fill="#D09741"/>
<path d="M38.578 32.3441C41.3655 38.3568 38.7509 45.4908 32.7382 48.2783C26.7255 51.0657 19.5915 48.4512 16.804 42.4385C14.0166 36.4258 16.6311 29.2918 22.6438 26.5043C28.6565 23.7168 35.7905 26.3314 38.578 32.3441Z" fill="#9ED83F"/>
<path fill-rule="evenodd" clip-rule="evenodd" d="M40.3925 31.5029C43.6445 38.5177 40.5942 46.8407 33.5794 50.0927C26.5646 53.3448 18.2416 50.2945 14.9895 43.2797C11.7375 36.2649 14.7878 27.9419 21.8026 24.6898C28.8174 21.4378 37.1404 24.4881 40.3925 31.5029ZM32.7382 48.2783C38.7509 45.4908 41.3654 38.3568 38.578 32.3441C35.7905 26.3314 28.6565 23.7168 22.6438 26.5043C16.6311 29.2918 14.0166 36.4258 16.804 42.4385C19.5915 48.4512 26.7255 51.0657 32.7382 48.2783Z" fill="#5A8C07"/>
<path fill-rule="evenodd" clip-rule="evenodd" d="M29.239 49.2943C34.002 45.1886 35.6792 38.2763 32.9031 32.2883C31.4788 29.216 29.1113 26.8812 26.3046 25.4684C31.311 24.8854 36.3424 27.5219 38.578 32.3441C41.3655 38.3568 38.7509 45.4908 32.7382 48.2783C31.5996 48.8061 30.4208 49.1402 29.239 49.2943Z" fill="#78B710"/>
<path d="M35.6074 42.0182C35.9259 42.5915 35.7194 43.3144 35.1461 43.633C34.5728 43.9515 33.8499 43.745 33.5313 43.1717C33.2128 42.5984 33.4193 41.8754 33.9926 41.5569C34.5659 41.2384 35.2888 41.4449 35.6074 42.0182Z" fill="#66A107"/>
<path d="M38.1658 37.4864C38.5598 38.1954 38.3044 39.0896 37.5953 39.4836C36.8862 39.8776 35.992 39.6222 35.5981 38.9131C35.2041 38.204 35.4595 37.3098 36.1686 36.9158C36.8776 36.5219 37.7718 36.7773 38.1658 37.4864Z" fill="#66A107"/>
<path d="M33.6314 45.9254C33.8549 46.3278 33.71 46.8352 33.3077 47.0588C32.9053 47.2823 32.3979 47.1374 32.1743 46.735C31.9508 46.3327 32.0957 45.8253 32.4981 45.6017C32.9004 45.3781 33.4078 45.5231 33.6314 45.9254Z" fill="#66A107"/>
<path d="M38.0285 41.0779C38.2521 41.4803 38.1072 41.9877 37.7048 42.2112C37.3025 42.4348 36.795 42.2899 36.5715 41.8875C36.3479 41.4851 36.4929 40.9777 36.8952 40.7542C37.2976 40.5306 37.805 40.6756 38.0285 41.0779Z" fill="#66A107"/>
<path d="M34.3345 38.8884C34.558 39.2907 34.4131 39.7982 34.0107 40.0217C33.6084 40.2453 33.101 40.1003 32.8774 39.698C32.6539 39.2956 32.7988 38.7882 33.2012 38.5647C33.6035 38.3411 34.1109 38.486 34.3345 38.8884Z" fill="#66A107"/>
<path d="M32.1211 43.5502C32.3446 43.9526 32.1997 44.46 31.7973 44.6835C31.395 44.9071 30.8876 44.7621 30.664 44.3598C30.4404 43.9574 30.5854 43.45 30.9877 43.2265C31.3901 43.0029 31.8975 43.1478 32.1211 43.5502Z" fill="#66A107"/>
<path d="M38.3592 34.4025C38.5828 34.8048 38.4379 35.3123 38.0355 35.5358C37.6331 35.7594 37.1257 35.6144 36.9022 35.2121C36.6786 34.8097 36.8235 34.3023 37.2259 34.0788C37.6283 33.8552 38.1357 34.0001 38.3592 34.4025Z" fill="#66A107"/>
<path d="M30.5161 46.8001C30.6555 47.051 30.5651 47.3675 30.3142 47.5069C30.0633 47.6463 29.7469 47.5559 29.6074 47.305C29.468 47.0541 29.5584 46.7377 29.8093 46.5982C30.0603 46.4588 30.3767 46.5492 30.5161 46.8001Z" fill="#66A107"/>
<path fill-rule="evenodd" clip-rule="evenodd" d="M38.7738 32.7896C35.7597 35.2554 32.1431 37.5318 28.0786 39.4161C24.3739 41.1336 20.661 42.3567 17.1327 43.095C17.0174 42.8809 16.9077 42.662 16.804 42.4385C14.0166 36.4258 16.6311 29.2918 22.6438 26.5043C28.6565 23.7168 35.7905 26.3314 38.578 32.3441C38.6465 32.492 38.7118 32.6405 38.7738 32.7896Z" fill="#68EDFF"/>
<path fill-rule="evenodd" clip-rule="evenodd" d="M33.6967 36.3975C33.4923 35.553 33.2038 34.7202 32.8273 33.908C31.0042 29.9755 27.4782 27.3057 23.3148 26.2175C29.1779 23.9149 35.8935 26.5538 38.578 32.3443C38.6465 32.4921 38.7118 32.6405 38.7738 32.7896C37.2321 34.0508 35.5329 35.2625 33.6967 36.3975Z" fill="#29C5DB"/>
<path fill-rule="evenodd" clip-rule="evenodd" d="M40.8819 30.3349C41.2764 30.7213 41.283 31.3545 40.8966 31.749C31.9704 40.8623 19.8421 43.5929 14.8255 43.825C14.2738 43.8505 13.8058 43.424 13.7803 42.8723C13.7548 42.3206 14.1813 41.8526 14.733 41.8271C19.4005 41.6112 30.9913 39.0038 39.4678 30.3496C39.8542 29.955 40.4873 29.9484 40.8819 30.3349Z" fill="#5A8C07"/>
<path fill-rule="evenodd" clip-rule="evenodd" d="M21.6278 29.8144C22.0746 30.1389 22.1737 30.7643 21.8492 31.2111C21.4777 31.7226 20.9085 32.7037 20.4868 33.8991C20.064 35.0975 19.8166 36.4343 19.999 37.6901C20.0784 38.2366 19.6997 38.744 19.1532 38.8234C18.6066 38.9028 18.0992 38.5241 18.0198 37.9776C17.7747 36.2902 18.1151 34.6104 18.6007 33.2337C19.0875 31.854 19.7475 30.7014 20.231 30.0358C20.5556 29.5889 21.1809 29.4898 21.6278 29.8144Z" fill="white"/>
<path d="M66.884 44.5718C67.1601 44.0935 67.7717 43.9296 68.25 44.2057C68.7283 44.4819 68.8922 45.0935 68.616 45.5718L51.616 75.0166C51.3399 75.4949 50.7283 75.6588 50.25 75.3827C49.7717 75.1065 49.6078 74.4949 49.884 74.0166L66.884 44.5718Z" fill="#E9CB91"/>
<path fill-rule="evenodd" clip-rule="evenodd" d="M70.3481 46.5718L53.3481 76.0166C52.5197 77.4515 50.6849 77.9431 49.25 77.1147C47.8151 76.2863 47.3235 74.4515 48.1519 73.0166L65.1519 43.5718C65.9804 42.1369 67.8151 41.6453 69.25 42.4737C70.6849 43.3021 71.1765 45.1369 70.3481 46.5718ZM68.616 45.5718L51.616 75.0166C51.3399 75.4949 50.7283 75.6588 50.25 75.3827C49.7717 75.1065 49.6079 74.4949 49.884 74.0166L66.884 44.5718C67.1601 44.0935 67.7717 43.9296 68.25 44.2057C68.7283 44.4819 68.8922 45.0935 68.616 45.5718Z" fill="#C19149"/>
<path fill-rule="evenodd" clip-rule="evenodd" d="M67.1696 50.0771C67.6478 50.3533 67.8117 50.9649 67.5356 51.4432L59.2856 65.7326C59.0094 66.2109 58.3978 66.3748 57.9196 66.0986C57.4413 65.8225 57.2774 65.2109 57.5535 64.7326L65.8035 50.4432C66.0797 49.9649 66.6913 49.801 67.1696 50.0771Z" fill="#AB7729"/>
<path d="M81.6423 45.0096C78.3286 50.7491 70.9895 52.7156 65.25 49.4019C59.5105 46.0882 57.544 38.7491 60.8577 33.0096C64.1714 27.2701 71.5105 25.3036 77.25 28.6173C82.9895 31.931 84.956 39.2701 81.6423 45.0096Z" fill="#FE531D"/>
<path fill-rule="evenodd" clip-rule="evenodd" d="M83.3744 46.0096C79.5084 52.7057 70.9461 54.9999 64.25 51.1339C57.5539 47.2679 55.2596 38.7057 59.1256 32.0096C62.9916 25.3135 71.5539 23.0192 78.25 26.8852C84.9461 30.7512 87.2403 39.3135 83.3744 46.0096ZM65.25 49.4019C70.9895 52.7156 78.3286 50.7491 81.6423 45.0096C84.956 39.2701 82.9895 31.931 77.25 28.6173C71.5105 25.3036 64.1714 27.2701 60.8577 33.0096C57.544 38.7491 59.5105 46.0882 65.25 49.4019Z" fill="#AC1703"/>
<path fill-rule="evenodd" clip-rule="evenodd" d="M62.4056 47.1246C68.5041 48.6578 75.1226 46.0521 78.4227 40.3362C80.1158 37.4035 80.6632 34.1237 80.2036 31.0152C83.5612 34.7744 84.2999 40.4064 81.6423 45.0096C78.3286 50.7491 70.9895 52.7156 65.25 49.4019C64.1631 48.7744 63.2116 48.0026 62.4056 47.1246Z" fill="#D7320E"/>
<path d="M71.9339 47.9863C71.6436 48.5743 70.9315 48.8157 70.3434 48.5253C69.7553 48.235 69.514 47.5229 69.8043 46.9348C70.0947 46.3467 70.8068 46.1054 71.3948 46.3957C71.9829 46.6861 72.2243 47.3982 71.9339 47.9863Z" fill="#B92607"/>
<path d="M77.1165 47.513C76.7574 48.2403 75.8766 48.5388 75.1493 48.1797C74.4219 47.8206 74.1234 46.9399 74.4825 46.2125C74.8416 45.4852 75.7224 45.1867 76.4497 45.5458C77.1771 45.9049 77.4756 46.7856 77.1165 47.513Z" fill="#B92607"/>
<path d="M67.5963 48.5834C67.3925 48.9962 66.8927 49.1655 66.48 48.9618C66.0673 48.758 65.8979 48.2582 66.1017 47.8455C66.3054 47.4328 66.8052 47.2634 67.218 47.4671C67.6307 47.6709 67.8001 48.1707 67.5963 48.5834Z" fill="#B92607"/>
<path d="M74.0844 49.4429C73.8806 49.8556 73.3808 50.025 72.9681 49.8212C72.5554 49.6174 72.386 49.1177 72.5897 48.7049C72.7935 48.2922 73.2933 48.1228 73.706 48.3266C74.1188 48.5304 74.2881 49.0301 74.0844 49.4429Z" fill="#B92607"/>
<path d="M73.7841 45.1592C73.5803 45.5719 73.0805 45.7413 72.6678 45.5375C72.2551 45.3337 72.0857 44.834 72.2895 44.4212C72.4933 44.0085 72.993 43.8391 73.4058 44.0429C73.8185 44.2467 73.9879 44.7464 73.7841 45.1592Z" fill="#B92607"/>
<path d="M68.6909 45.9902C68.4871 46.403 67.9873 46.5723 67.5746 46.3686C67.1619 46.1648 66.9925 45.665 67.1962 45.2523C67.4 44.8396 67.8998 44.6702 68.3125 44.8739C68.7253 45.0777 68.8946 45.5775 68.6909 45.9902Z" fill="#B92607"/>
<path d="M79.7629 45.918C79.5591 46.3308 79.0594 46.5001 78.6466 46.2964C78.2339 46.0926 78.0645 45.5928 78.2683 45.1801C78.4721 44.7674 78.9719 44.598 79.3846 44.8017C79.7973 45.0055 79.9667 45.5053 79.7629 45.918Z" fill="#B92607"/>
<path d="M65.105 46.5186C64.9779 46.776 64.6662 46.8816 64.4088 46.7545C64.1514 46.6275 64.0458 46.3158 64.1729 46.0584C64.3 45.801 64.6116 45.6954 64.869 45.8225C65.1264 45.9496 65.232 46.2612 65.105 46.5186Z" fill="#B92607"/>
<path fill-rule="evenodd" clip-rule="evenodd" d="M81.3907 45.4261C77.6396 44.3798 73.6968 42.7317 69.817 40.4916C66.2806 38.4499 63.1439 36.117 60.5099 33.6562C60.6186 33.4386 60.7345 33.223 60.8577 33.0096C64.1714 27.2701 71.5105 25.3036 77.25 28.6173C82.9895 31.931 84.956 39.2701 81.6423 45.0096C81.5608 45.1507 81.4769 45.2895 81.3907 45.4261Z" fill="#FBA72A"/>
<path fill-rule="evenodd" clip-rule="evenodd" d="M75.5185 43.3496C76.0916 42.6966 76.6067 41.9814 77.0543 41.2062C79.2216 37.4523 79.3763 33.0323 77.8707 29.001C83.1275 32.4714 84.8334 39.4823 81.6422 45.0097C81.5607 45.1508 81.4768 45.2896 81.3906 45.4261C79.472 44.8909 77.5033 44.1983 75.5185 43.3496Z" fill="#E08A09"/>
<path fill-rule="evenodd" clip-rule="evenodd" d="M84.6113 45.7378C84.5222 46.2829 84.0082 46.6525 83.4631 46.5635C70.8735 44.5068 61.6616 36.1586 58.5852 32.1891C58.2469 31.7526 58.3265 31.1245 58.7631 30.7862C59.1996 30.4478 59.8277 30.5275 60.166 30.964C63.0283 34.6571 71.8302 42.6366 83.7856 44.5896C84.3306 44.6787 84.7003 45.1927 84.6113 45.7378Z" fill="#AC1703"/>
<path fill-rule="evenodd" clip-rule="evenodd" d="M73.9582 29.6908C73.9498 30.2431 73.4954 30.684 72.9432 30.6756C72.3111 30.6661 71.1813 30.7651 69.9609 31.108C68.7375 31.4518 67.5018 32.0186 66.5797 32.8904C66.1784 33.2698 65.5454 33.2521 65.166 32.8507C64.7866 32.4494 64.8044 31.8165 65.2057 31.4371C66.4447 30.2657 68.0144 29.5775 69.4199 29.1826C70.8284 28.7868 72.1507 28.6634 72.9734 28.6758C73.5256 28.6842 73.9665 29.1386 73.9582 29.6908Z" fill="white"/>
<path d="M47 41C47 40.4477 47.4477 40 48 40C48.5523 40 49 40.4477 49 41V75C49 75.5523 48.5523 76 48 76C47.4477 76 47 75.5523 47 75V41Z" fill="#FAF4C6"/>
<path fill-rule="evenodd" clip-rule="evenodd" d="M51 41V75C51 76.6569 49.6569 78 48 78C46.3431 78 45 76.6569 45 75V41C45 39.3431 46.3431 38 48 38C49.6569 38 51 39.3431 51 41ZM49 41V75C49 75.5523 48.5523 76 48 76C47.4477 76 47 75.5523 47 75V41C47 40.4477 47.4477 40 48 40C48.5523 40 49 40.4477 49 41Z" fill="#E0B16A"/>
<path fill-rule="evenodd" clip-rule="evenodd" d="M50 45.625C50.5523 45.625 51 46.0727 51 46.625V63.125C51 63.6773 50.5523 64.125 50 64.125C49.4477 64.125 49 63.6773 49 63.125V46.625C49 46.0727 49.4477 45.625 50 45.625Z" fill="#D09741"/>
<path d="M60 34C60 40.6274 54.6274 46 48 46C41.3726 46 36 40.6274 36 34C36 27.3726 41.3726 22 48 22C54.6274 22 60 27.3726 60 34Z" fill="#FFAEE8"/>
<path fill-rule="evenodd" clip-rule="evenodd" d="M62 34C62 41.732 55.732 48 48 48C40.268 48 34 41.732 34 34C34 26.268 40.268 20 48 20C55.732 20 62 26.268 62 34ZM48 46C54.6274 46 60 40.6274 60 34C60 27.3726 54.6274 22 48 22C41.3726 22 36 27.3726 36 34C36 40.6274 41.3726 46 48 46Z" fill="#B63C94"/>
<path fill-rule="evenodd" clip-rule="evenodd" d="M44.398 45.45C50.4461 43.7285 54.875 38.1627 54.875 31.5625C54.875 28.1762 53.7091 25.0621 51.7569 22.5999C56.5442 24.1766 60 28.6847 60 34C60 40.6274 54.6274 46 48 46C46.745 46 45.535 45.8074 44.398 45.45Z" fill="#E972C7"/>
<path fill-rule="evenodd" clip-rule="evenodd" d="M59.9903 34.4865C56.2186 35.4559 51.98 36 47.5 36C43.4165 36 39.5336 35.548 36.0221 34.7339C36.0074 34.4911 36 34.2464 36 34C36 27.3726 41.3726 22 48 22C54.6274 22 60 27.3726 60 34C60 34.163 59.9967 34.3252 59.9903 34.4865Z" fill="#FFD568"/>
<path fill-rule="evenodd" clip-rule="evenodd" d="M53.8666 35.6243C54.0364 34.7722 54.125 33.8953 54.125 33.0001C54.125 28.6656 52.0489 24.7604 48.7294 22.022C55.0171 22.399 60 27.6177 60 34.0002C60 34.1631 59.9967 34.3252 59.9903 34.4865C58.0612 34.9824 56.0099 35.3669 53.8666 35.6243Z" fill="#F5B350"/>
<path d="M52.625 41.25C52.625 41.9058 52.0933 42.4375 51.4375 42.4375C50.7817 42.4375 50.25 41.9058 50.25 41.25C50.25 40.5942 50.7817 40.0625 51.4375 40.0625C52.0933 40.0625 52.625 40.5942 52.625 41.25Z" fill="#C751A6"/>
<path d="M57.0625 38.5312C57.0625 39.3424 56.4049 40 55.5938 40C54.7826 40 54.125 39.3424 54.125 38.5312C54.125 37.7201 54.7826 37.0625 55.5938 37.0625C56.4049 37.0625 57.0625 37.7201 57.0625 38.5312Z" fill="#C751A6"/>
<path d="M49 43.7057C49 44.166 48.6269 44.5392 48.1666 44.5392C47.7063 44.5392 47.3331 44.166 47.3331 43.7057C47.3331 43.2455 47.7063 42.8723 48.1666 42.8723C48.6269 42.8723 49 43.2455 49 43.7057Z" fill="#C751A6"/>
<path d="M55.1981 41.6041C55.1981 42.0644 54.8249 42.4375 54.3647 42.4375C53.9044 42.4375 53.5312 42.0644 53.5312 41.6041C53.5312 41.1438 53.9044 40.7706 54.3647 40.7706C54.8249 40.7706 55.1981 41.1438 55.1981 41.6041Z" fill="#C751A6"/>
<path d="M53.0324 37.8959C53.0324 38.3562 52.6593 38.7294 52.199 38.7294C51.7387 38.7294 51.3656 38.3562 51.3656 37.8959C51.3656 37.4356 51.7387 37.0625 52.199 37.0625C52.6593 37.0625 53.0324 37.4356 53.0324 37.8959Z" fill="#C751A6"/>
<path d="M48.8334 40.8959C48.8334 41.3562 48.4603 41.7294 48 41.7294C47.5397 41.7294 47.1666 41.3562 47.1666 40.8959C47.1666 40.4356 47.5397 40.0625 48 40.0625C48.4603 40.0625 48.8334 40.4356 48.8334 40.8959Z" fill="#C751A6"/>
<path d="M58.7294 35.9295C58.7294 36.3898 58.3562 36.7629 57.8959 36.7629C57.4356 36.7629 57.0625 36.3898 57.0625 35.9295C57.0625 35.4692 57.4356 35.0961 57.8959 35.0961C58.3562 35.0961 58.7294 35.4692 58.7294 35.9295Z" fill="#C751A6"/>
<path d="M45.852 42.9572C45.852 43.2443 45.6193 43.477 45.3322 43.477C45.0452 43.477 44.8125 43.2443 44.8125 42.9572C44.8125 42.6702 45.0452 42.4375 45.3322 42.4375C45.6193 42.4375 45.852 42.6702 45.852 42.9572Z" fill="#C751A6"/>
<path fill-rule="evenodd" clip-rule="evenodd" d="M62.9353 33.1462C63.1307 33.6627 62.8704 34.2399 62.3538 34.4353C50.4225 38.949 38.2707 36.3251 33.6218 34.4257C33.1105 34.2168 32.8654 33.633 33.0743 33.1218C33.2832 32.6105 33.867 32.3654 34.3782 32.5743C38.7036 34.3415 50.3159 36.851 61.6462 32.5647C62.1627 32.3693 62.7399 32.6296 62.9353 33.1462Z" fill="#B63C94"/>
<path fill-rule="evenodd" clip-rule="evenodd" d="M45.686 24.5756C45.9549 25.058 45.7818 25.6671 45.2993 25.936C44.7472 26.2437 43.8182 26.8944 42.9328 27.8016C42.0452 28.711 41.2585 29.8198 40.8958 31.0358C40.7379 31.5651 40.1809 31.8661 39.6517 31.7083C39.1224 31.5504 38.8214 30.9934 38.9792 30.4642C39.4665 28.8302 40.4819 27.4494 41.5015 26.4047C42.5234 25.3576 43.607 24.5896 44.3256 24.189C44.808 23.9201 45.4171 24.0932 45.686 24.5756Z" fill="white"/>
</svg>
